
<svg width="77px" height="63px" viewBox="9 105 77 63" version="1.1" xmlns="http://www.w3.org/2000/svg" xmlns:xlink="http://www.w3.org/1999/xlink">
    <!-- Generator: Sketch 3.8.1 (29687) - http://www.bohemiancoding.com/sketch -->
    <desc>Created with Sketch.</desc>
    <defs></defs>
    <g id="quick" stroke="none" stroke-width="1" fill="none" fill-rule="evenodd" transform="translate(9.000000, 105.000000)">
        <g id="Group" fill="#000000">
            <g id="People">
                <g id="Icon-17">
                    <path style="fill:#1972A9" d="M51.3333333,60.8076923 C51.3333333,61.4658462 50.7584,62 50.05,62 L47.4833333,62 C46.7749333,62 46.2,61.4658462 46.2,60.8076923 C46.2,60.1495385 46.7749333,59.6153846 47.4833333,59.6153846 L50.05,59.6153846 C50.7584,59.6153846 51.3333333,60.1495385 51.3333333,60.8076923 M77,60.8076923 C77,61.4658462 76.4250667,62 75.7166667,62 L55.1833333,62 C54.4749333,62 53.9,61.4658462 53.9,60.8076923 C53.9,60.1495385 54.4749333,59.6153846 55.1833333,59.6153846 L75.7166667,59.6153846 C76.4250667,59.6153846 77,60.1495385 77,60.8076923 M41.0666667,60.8076923 C41.0666667,61.4658462 40.4917333,62 39.7833333,62 L26.95,62 C26.2416,62 25.6666667,61.4658462 25.6666667,60.8076923 C25.6666667,60.1495385 26.2416,59.6153846 26.95,59.6153846 L39.7833333,59.6153846 C40.4917333,59.6153846 41.0666667,60.1495385 41.0666667,60.8076923 M20.5333333,60.8076923 C20.5333333,61.4658462 19.9584,62 19.25,62 L1.28333333,62 C0.574933333,62 0,61.4658462 0,60.8076923 C0,60.1495385 0.574933333,59.6153846 1.28333333,59.6153846 L19.25,59.6153846 C19.9584,59.6153846 20.5333333,60.1495385 20.5333333,60.8076923 M2.56666667,36.9615385 C2.56666667,36.3033846 3.1416,35.7692308 3.85,35.7692308 L7.49466667,35.7692308 L6.95181667,32.3675769 C6.84786667,31.7165769 7.33168333,31.1096923 8.03238333,31.0131154 C8.73821667,30.9213077 9.38758333,31.3660385 9.49153333,32.0170385 L10.09085,35.7692308 L19.25,35.7692308 C19.9584,35.7692308 20.5333333,36.3033846 20.5333333,36.9615385 C20.5333333,37.6196923 19.9584,38.1538462 19.25,38.1538462 L3.85,38.1538462 C3.1416,38.1538462 2.56666667,37.6196923 2.56666667,36.9615385 M3.85,26.2307692 L5.85071667,26.2307692 L5.30786667,22.8291154 C5.20391667,22.1781154 5.68773333,21.5712308 6.38843333,21.4746538 C7.09426667,21.3840385 7.74363333,21.8275769 7.8463,22.4785769 L8.4469,26.2307692 L19.25,26.2307692 C19.9584,26.2307692 20.5333333,26.7649231 20.5333333,27.4230769 C20.5333333,28.0812308 19.9584,28.6153846 19.25,28.6153846 L3.85,28.6153846 C3.1416,28.6153846 2.56666667,28.0812308 2.56666667,27.4230769 C2.56666667,26.7649231 3.1416,26.2307692 3.85,26.2307692 M19.25,50.0769231 C18.5428833,50.0769231 17.9666667,49.5415769 17.9666667,48.8846154 C17.9666667,48.2276538 18.5428833,47.6923077 19.25,47.6923077 C19.9571167,47.6923077 20.5333333,48.2276538 20.5333333,48.8846154 C20.5333333,49.5415769 19.9571167,50.0769231 19.25,50.0769231 M19.25,45.3076923 C17.1273667,45.3076923 15.4,46.9125385 15.4,48.8846154 C15.4,50.8566923 17.1273667,52.4615385 19.25,52.4615385 C21.3726333,52.4615385 23.1,50.8566923 23.1,48.8846154 C23.1,46.9125385 21.3726333,45.3076923 19.25,45.3076923 M62.8833333,50.0769231 C62.1762167,50.0769231 61.6,49.5415769 61.6,48.8846154 C61.6,48.2276538 62.1762167,47.6923077 62.8833333,47.6923077 C63.59045,47.6923077 64.1666667,48.2276538 64.1666667,48.8846154 C64.1666667,49.5415769 63.59045,50.0769231 62.8833333,50.0769231 M62.8833333,45.3076923 C60.7607,45.3076923 59.0333333,46.9125385 59.0333333,48.8846154 C59.0333333,50.8566923 60.7607,52.4615385 62.8833333,52.4615385 C65.0059667,52.4615385 66.7333333,50.8566923 66.7333333,48.8846154 C66.7333333,46.9125385 65.0059667,45.3076923 62.8833333,45.3076923 M62.8833333,54.8461538 C59.3451833,54.8461538 56.4666667,52.1718077 56.4666667,48.8846154 C56.4666667,45.5974231 59.3451833,42.9230769 62.8833333,42.9230769 C66.4214833,42.9230769 69.3,45.5974231 69.3,48.8846154 C69.3,52.1718077 66.4214833,54.8461538 62.8833333,54.8461538 M75.34065,30.1570385 L71.8230333,26.8889231 L70.5833333,13.1153846 C70.5833333,9.82819231 67.7048167,7.15384615 64.1666667,7.15384615 L55.1833333,7.15384615 C54.4749333,7.15384615 53.9,7.688 53.9,8.34615385 C53.9,9.00430769 54.4749333,9.53846154 55.1833333,9.53846154 L64.1666667,9.53846154 C66.2533667,9.53846154 68.0166667,11.1766923 68.0205167,13.2143462 L69.18835,26.2307692 L64.9597667,26.2307692 L66.5985833,23.1868077 C66.9155667,22.5978077 66.6576167,21.8824231 66.02365,21.5867308 C65.3884,21.2922308 64.6196833,21.5318846 64.3014167,22.1208846 L62.0902333,26.2307692 L55.1833333,26.2307692 C54.4749333,26.2307692 53.9,26.7649231 53.9,27.4230769 C53.9,28.0812308 54.4749333,28.6153846 55.1833333,28.6153846 L70.0520333,28.6153846 L73.5260167,31.8429615 C74.2575167,32.5225769 74.4307667,34.0856923 74.4333333,34.5769231 L74.4333333,47.6923077 L71.764,47.6923077 C71.1390167,43.6539615 67.4006667,40.5384615 62.8833333,40.5384615 C57.9296667,40.5384615 53.9,44.2823077 53.9,48.8846154 C53.9,53.4869231 57.9296667,57.2307692 62.8833333,57.2307692 C67.4006667,57.2307692 71.1390167,54.1152692 71.764,50.0769231 L75.7166667,50.0769231 C76.4250667,50.0769231 77,49.5427692 77,48.8846154 L77,34.5769231 C77,34.2824231 76.9538,31.6545769 75.34065,30.1570385 M19.25,54.8461538 C15.71185,54.8461538 12.8333333,52.1718077 12.8333333,48.8846154 C12.8333333,45.5974231 15.71185,42.9230769 19.25,42.9230769 C22.78815,42.9230769 25.6666667,45.5974231 25.6666667,48.8846154 C25.6666667,52.1718077 22.78815,54.8461538 19.25,54.8461538 M50.05,0 L8.98333333,0 C5.44518333,0 2.56666667,2.67434615 2.56666667,5.96153846 C2.56666667,6.02115385 2.5718,6.07957692 2.58078333,6.138 L4.28505,16.6923077 L1.28333333,16.6923077 C0.574933333,16.6923077 0,17.2264615 0,17.8846154 C0,18.5427692 0.574933333,19.0769231 1.28333333,19.0769231 L19.25,19.0769231 C19.9584,19.0769231 20.5333333,18.5427692 20.5333333,17.8846154 C20.5333333,17.2264615 19.9584,16.6923077 19.25,16.6923077 L6.87995,16.6923077 L5.13461667,5.87926923 C5.1821,3.94534615 6.89021667,2.38461538 8.98333333,2.38461538 L48.7666667,2.38461538 L48.7666667,47.6923077 L28.1306667,47.6923077 C27.5056833,43.6539615 23.7673333,40.5384615 19.25,40.5384615 C14.2963333,40.5384615 10.2666667,44.2823077 10.2666667,48.8846154 C10.2666667,53.4869231 14.2963333,57.2307692 19.25,57.2307692 C23.7673333,57.2307692 27.5056833,54.1152692 28.1306667,50.0769231 L50.05,50.0769231 C50.7584,50.0769231 51.3333333,49.5427692 51.3333333,48.8846154 L51.3333333,1.19230769 C51.3333333,0.534153846 50.7584,0 50.05,0" id="truck"></path>
                </g>
            </g>
        </g>
    </g>
</svg>
