
<svg width="351px" height="300px" viewBox="21 533 351 300" version="1.1" xmlns="http://www.w3.org/2000/svg" xmlns:xlink="http://www.w3.org/1999/xlink">
    <!-- Generator: Sketch 3.8.1 (29687) - http://www.bohemiancoding.com/sketch -->
    <desc>Created with Sketch.</desc>
    <defs></defs>
    <g id="Group" stroke="none" stroke-width="1" fill="none" fill-rule="evenodd" transform="translate(21.000000, 533.000000)">
        <g id="cssicon" transform="translate(179.035793, 0.000000)" fill="#030104">
            <g id="Capa_1">
                <path d="M158.501065,0 L10.8216129,0 C4.8519438,0 0.0127014236,4.10322105 0.0127014236,9.1649373 L0.0127014236,134.383182 C0.0127014236,139.434128 4.8519438,143.558889 10.8216129,143.558889 L158.488363,143.558889 C164.458032,143.558889 169.297275,139.434128 169.297275,134.383182 L169.297275,9.1649373 C169.297275,4.10322105 164.470734,0 158.501065,0 L158.501065,0 Z M50.259533,83.2059995 C53.828633,83.2059995 56.6102448,82.6998279 58.8710982,81.9459552 L60.6619989,91.3478239 C57.9947,92.3601672 52.9395334,93.2001967 47.1857885,93.2001967 C31.5376347,93.2001967 21.5289129,85.1445291 21.5289129,72.1994591 C21.5289129,60.2021146 31.2328005,50.3694615 49.268822,50.3694615 C53.2316661,50.3694615 57.6009558,50.96179 60.7636103,51.9633637 L58.3884441,61.4513892 C56.6102448,60.7729039 53.9302444,60.2021146 49.9674003,60.2021146 C42.041712,60.2021146 36.884934,64.983821 36.9865454,71.704057 C36.9865454,79.2427834 42.9308116,83.2059995 50.259533,83.2059995 L50.259533,83.2059995 Z M81.8987791,93.1894271 C75.5480673,93.1894271 69.9086353,92.0155397 66.2379238,90.3247111 L68.9179242,81.1705434 C71.6868345,82.6029014 77.4405794,84.2829604 81.8987791,84.2829604 C86.4458887,84.2829604 88.3256994,82.9367593 88.3256994,80.8366855 C88.3256994,78.7366118 86.8523343,77.7350381 81.1874994,76.1303664 C71.1787776,73.27642 67.3175448,68.6670273 67.4318577,63.7883944 C67.4318577,56.141972 75.1543232,50.3479223 87.144467,50.3479223 C92.7838991,50.3479223 97.8390657,51.4464224 100.798497,52.7064667 L98.1311984,61.5267765 C95.959255,60.5036636 91.793188,59.1682321 87.6271211,59.1682321 C83.9691111,59.1682321 81.8987791,60.4175068 81.8987791,62.5283501 C81.8987791,64.4668798 83.7658884,65.4684534 89.7101546,67.2346693 C98.9313881,69.9270716 102.779919,73.8687485 102.881531,79.9212687 C102.881531,87.5569216 95.7433308,93.1894271 81.8987791,93.1894271 L81.8987791,93.1894271 Z M124.905799,93.1894271 C118.555087,93.1894271 112.915655,92.0155397 109.244944,90.3247111 L111.924944,81.1705434 C114.706556,82.6029014 120.4476,84.2829604 124.905799,84.2829604 C129.452909,84.2829604 131.33272,82.9367593 131.33272,80.8366855 C131.33272,78.7366118 129.846653,77.7350381 124.19452,76.1303664 C114.185798,73.27642 110.324565,68.6670273 110.438878,63.7883944 C110.438878,56.141972 118.148642,50.3479223 130.151487,50.3479223 C135.790919,50.3479223 140.846086,51.4464224 143.805517,52.7064667 L141.138219,61.5267765 C138.966275,60.5036636 134.800208,59.1682321 130.634141,59.1682321 C126.976131,59.1682321 124.905799,60.4175068 124.905799,62.5283501 C124.905799,64.4668798 126.772909,65.4684534 132.717175,67.2346693 C141.938408,69.9270716 145.78694,73.8687485 145.888551,79.9212687 C145.901252,87.5569216 138.763052,93.1894271 124.905799,93.1894271 L124.905799,93.1894271 Z" id="Shape"></path>
            </g>
        </g>
        <g id="internet-(1)" fill="#030104">
            <g id="Capa_1">
                <path d="M158.622194,0 L10.3360624,0 C4.61706838,0 0,3.90680369 0,8.7251949 L0,133.882442 C0,138.719437 4.62808764,142.616938 10.3360624,142.616938 L158.611175,142.616938 C164.330169,142.616938 168.947237,138.710135 168.947237,133.882442 L168.947237,8.7251949 C168.958256,3.90680369 164.330169,0 158.622194,0 L158.622194,0 Z M49.1789408,87.6891389 L40.4296513,87.6891389 L40.4296513,73.9967222 L25.972387,73.9967222 L25.972387,87.6891389 L17.1680013,87.6891389 L17.1680013,54.9371013 L25.972387,54.9371013 L25.972387,67.5318923 L40.4296513,67.5318923 L40.4296513,54.9371013 L49.1789408,54.9371013 L49.1789408,87.6891389 L49.1789408,87.6891389 Z M83.7463477,61.1507796 L73.1568424,61.1507796 L73.1568424,87.6891389 L64.3414374,87.6891389 L64.3414374,61.1507796 L53.917221,61.1507796 L53.917221,54.9371013 L83.7463477,54.9371013 L83.7463477,61.1507796 L83.7463477,61.1507796 Z M121.586474,87.6891389 L121.013472,75.1594614 C120.837164,71.21545 120.671875,66.4528703 120.671875,61.6995925 L120.506587,61.6995925 C119.294468,65.8761517 117.674638,70.5457123 116.176019,74.3781006 L111.448758,87.1682318 L104.6058,87.1682318 L100.45154,74.4804217 C99.1843257,70.6387314 97.862015,65.9691708 96.9474167,61.6995925 L96.8262049,61.6995925 C96.5948005,66.1180014 96.4295117,71.1782424 96.1319918,75.2524805 L95.4377786,87.6891389 L87.3165867,87.6891389 L89.7959194,54.9371013 L101.49837,54.9371013 L105.300013,65.8761517 C106.501112,69.6620305 107.724249,73.7455705 108.583751,77.5872608 L108.760059,77.5872608 C109.861985,73.7920801 111.184296,69.4666903 112.440491,65.8203402 L116.594751,54.9371013 L128.054777,54.9371013 L130.181494,87.6891389 C130.181494,87.6891389 121.586474,87.6891389 121.586474,87.6891389 L121.586474,87.6891389 Z M161.167642,87.6891389 L136.925278,87.6891389 L136.925278,54.9371013 L145.740684,54.9371013 L145.740684,81.4847626 L161.167642,81.4847626 L161.167642,87.6891389 L161.167642,87.6891389 Z" id="Shape"></path>
            </g>
        </g>
        <g id="java" transform="translate(94.229364, 153.614458)" fill="#030104">
            <g id="Capa_1">
                <path d="M160.423919,0 L10.9403513,0 C4.90352914,0 0,4.14215939 0,9.25562696 L0,135.726218 C0,140.827153 4.90352914,144.981845 10.9403513,144.981845 L160.423919,144.981845 C166.460741,144.981845 171.36427,140.833419 171.36427,135.726218 L171.36427,9.24936046 C171.356863,4.14215939 166.460741,0 160.423919,0 L160.423919,0 Z M77.8120447,81.715217 C77.8120447,85.7445793 77.360209,89.1786237 76.4565374,92.0110837 C75.5528659,94.8435437 74.1825443,97.1182848 72.360387,98.897972 C70.5308225,100.652593 68.2420151,101.94976 65.5161862,102.758139 C62.7829501,103.579051 59.6052855,103.980107 55.9831922,103.980107 C52.7981204,103.980107 49.9241486,103.553985 47.3390555,102.708007 C44.7539623,101.862029 42.5688549,100.652593 40.7615119,99.0734341 C38.9467617,97.4880085 37.5542186,95.5767247 36.5764757,93.3333161 C35.5913256,91.0836411 35.1024541,88.5707728 35.1024541,85.8197774 L35.1024541,84.0150241 L45.3687553,84.0150241 C45.3687553,92.0988148 48.90937,96.1469766 55.9905993,96.1469766 C57.8053496,96.1469766 59.4126997,95.9715145 60.8348713,95.6017907 C62.2496358,95.2258005 63.4495931,94.5427515 64.4347432,93.5213113 C65.4198933,92.5061376 66.1606077,91.1024406 66.6717006,89.2851543 C67.1827935,87.467868 67.4420435,85.0991294 67.4420435,82.1726719 L67.4420435,36.9410433 L77.826859,36.9410433 L77.826859,81.715217 L77.8120447,81.715217 L77.8120447,81.715217 Z M135.106301,94.8435437 C134.04708,96.673363 132.536023,98.2713216 130.602758,99.6374195 C128.654679,101.003517 126.276986,102.062557 123.484493,102.839603 C120.699407,103.59785 117.558778,103.980107 114.099642,103.980107 C98.7668543,103.980107 90.6708462,98.860373 89.8486533,88.6083718 L99.937183,88.6083718 C99.9816259,94.3986219 104.670348,97.3000134 113.988535,97.3000134 C116.055128,97.3000134 117.906914,97.1120183 119.49945,96.7172285 C121.091985,96.3349717 122.425271,95.8023189 123.477086,95.1255364 C124.543714,94.4487539 125.343686,93.6403749 125.899222,92.7191987 C126.439943,91.8042891 126.728822,90.8079149 126.728822,89.7175431 C126.728822,88.5707728 126.514015,87.6621297 126.106622,86.9728142 C125.691822,86.2772322 124.877036,85.6568483 123.677079,85.1179289 C122.484528,84.585276 120.817921,84.0588897 118.699478,83.5513028 C116.573628,83.0249164 113.795949,82.3794665 110.373849,81.6212195 C107.040634,80.919371 104.151848,80.2175225 101.737119,79.515674 C99.3075758,78.8263585 97.3224613,77.9803804 95.7743682,76.9840062 C94.2188681,75.9813655 93.0633536,74.7531307 92.3152321,73.2930352 C91.5671106,71.8266731 91.1967534,69.9780543 91.1967534,67.7471788 C91.1967534,65.7857629 91.6856249,63.9622101 92.670775,62.282787 C93.6559251,60.6033638 95.0558753,59.1495348 96.8928469,57.9150334 C98.7150043,56.6805321 100.92974,55.7217569 103.522241,55.0199084 C106.136962,54.3180599 109.025748,53.9734022 112.203413,53.9734022 C127.032515,53.9734022 134.572987,58.4288868 134.802608,67.352389 L124.884443,67.352389 C124.5289,62.8969044 120.558671,60.6597623 112.966349,60.6597623 C111.27752,60.6597623 109.72202,60.8038919 108.277627,61.0858846 C106.833234,61.3678773 105.596241,61.7752001 104.529612,62.307853 C103.462983,62.8405059 102.648198,63.4984888 102.048219,64.2818019 C101.463055,65.0651149 101.166769,65.973758 101.166769,67.0014648 C101.166769,67.9351739 101.307505,68.6996874 101.581569,69.2950054 C101.855633,69.8965898 102.514869,70.4605752 103.559276,70.9744285 C104.603684,71.4882819 106.151777,71.9958687 108.188741,72.4971891 C110.233113,72.9985094 113.025606,73.6126269 116.573628,74.3458079 C119.995728,75.0413899 122.965993,75.7683044 125.491829,76.5140184 C128.002851,77.2659989 130.091665,78.1746421 131.773087,79.2399478 C133.447101,80.298987 134.676687,81.5961534 135.491473,83.131447 C136.291444,84.6604741 136.698837,86.5780244 136.698837,88.871565 C136.698837,91.020976 136.158116,93.0137244 135.106301,94.8435437 L135.106301,94.8435437 Z" id="Shape"></path>
            </g>
        </g>
    </g>
</svg>
