
<svg width="183px" height="159px" viewBox="757 189 183 159" version="1.1" xmlns="http://www.w3.org/2000/svg" xmlns:xlink="http://www.w3.org/1999/xlink">
    <!-- Generator: Sketch 3.8.1 (29687) - http://www.bohemiancoding.com/sketch -->
    <desc>Created with Sketch.</desc>
    <defs>
        <filter x="-50%" y="-50%" width="200%" height="200%" filterUnits="objectBoundingBox" id="filter-1">
            <feOffset dx="0" dy="4" in="SourceAlpha" result="shadowOffsetOuter1"></feOffset>
            <feGaussianBlur stdDeviation="2" in="shadowOffsetOuter1" result="shadowBlurOuter1"></feGaussianBlur>
            <feColorMatrix values="0 0 0 0 0   0 0 0 0 0   0 0 0 0 0  0 0 0 0.5 0" type="matrix" in="shadowBlurOuter1" result="shadowMatrixOuter1"></feColorMatrix>
            <feMerge>
                <feMergeNode in="shadowMatrixOuter1"></feMergeNode>
                <feMergeNode in="SourceGraphic"></feMergeNode>
            </feMerge>
        </filter>
    </defs>
    <g id="laptop" filter="url(#filter-1)" style="mix-blend-mode: darken;" stroke="none" stroke-width="1" fill="none" fill-rule="evenodd" transform="translate(761.000000, 189.000000)">
        <g id="Layer_1" fill="#000000">
            <path d="M172.265625,132.125 L166.796875,132.125 L166.796875,58.984375 C166.796875,52.4795781 160.663672,47.1875 153.125,47.1875 L139.453125,47.1875 L117.578125,47.1875 L114.84375,47.1875 L114.84375,20.5761094 L125.78125,17.4310625 L125.78125,28.7489844 C122.606641,29.7257656 120.3125,32.3210781 120.3125,35.3929844 C120.3125,39.2953906 123.992969,42.4711094 128.515625,42.4711094 C133.038281,42.4711094 136.71875,39.2953906 136.71875,35.3929844 C136.71875,32.3210781 134.424609,29.7257656 131.25,28.7489844 L131.25,14.15625 C131.25,13.1393594 130.498047,12.2404375 129.379687,11.9172031 L88.3640625,0.120328125 C87.8035156,-0.040109375 87.19375,-0.040109375 86.6332031,0.120328125 L45.6175781,11.9172031 C44.5019531,12.2404375 43.75,13.1393594 43.75,14.15625 C43.75,15.1731406 44.5019531,16.0720625 45.6203125,16.3952969 L60.15625,20.5761094 L60.15625,47.1875 L21.875,47.1875 C14.3363281,47.1875 8.203125,52.4795781 8.203125,58.984375 L8.203125,132.125 L2.734375,132.125 C1.22226562,132.125 0,133.182 0,134.484375 C0,143.591562 8.58867187,151 19.140625,151 L155.859375,151 C166.411328,151 175,143.591562 175,134.484375 C175,133.182 173.777734,132.125 172.265625,132.125 L172.265625,132.125 Z M128.515625,33.03125 C130.025,33.03125 131.25,34.0906094 131.25,35.390625 C131.25,36.6906406 130.025,37.75 128.515625,37.75 C127.00625,37.75 125.78125,36.6906406 125.78125,35.390625 C125.78125,34.0906094 127.00625,33.03125 128.515625,33.03125 L128.515625,33.03125 Z M120.3125,51.90625 L136.71875,51.90625 L136.71875,71.6825312 L129.737891,68.6719687 C129.355078,68.5044531 128.933984,68.421875 128.515625,68.421875 C128.097266,68.421875 127.676172,68.5044531 127.293359,68.6696094 L120.3125,71.6825312 L120.3125,51.90625 L120.3125,51.90625 Z M116.142578,77.5078281 C116.946484,77.9395938 117.95,77.972625 118.803125,77.6116406 L128.515625,73.4190313 L138.230859,77.6092812 C138.616406,77.7767969 139.034766,77.859375 139.453125,77.859375 C139.953516,77.859375 140.451172,77.7414063 140.888672,77.5078281 C141.695312,77.0760625 142.1875,76.3187031 142.1875,75.5 L142.1875,61.34375 L150.390625,61.34375 L150.390625,122.6875 L24.609375,122.6875 L24.609375,61.34375 L114.84375,61.34375 L114.84375,75.5 C114.84375,76.3187031 115.335938,77.0760625 116.142578,77.5078281 L116.142578,77.5078281 Z M55.1304688,14.15625 L87.5,4.84615625 L119.869531,14.15625 L87.5,23.4663437 L55.1304688,14.15625 L55.1304688,14.15625 Z M109.375,22.1498125 L109.375,47.1875 L65.625,47.1875 L65.625,22.1498125 L86.6359375,28.1921719 C86.9148438,28.2723906 87.2101563,28.3125 87.5,28.3125 C87.7898438,28.3125 88.0851563,28.2723906 88.3640625,28.1921719 L109.375,22.1498125 L109.375,22.1498125 Z M13.671875,58.984375 C13.671875,55.0819687 17.3523437,51.90625 21.875,51.90625 L114.84375,51.90625 L114.84375,56.625 L21.875,56.625 C20.3628906,56.625 19.140625,57.682 19.140625,58.984375 L19.140625,125.046875 C19.140625,126.34925 20.3628906,127.40625 21.875,127.40625 L153.125,127.40625 C154.637109,127.40625 155.859375,126.34925 155.859375,125.046875 L155.859375,58.984375 C155.859375,57.682 154.637109,56.625 153.125,56.625 L142.1875,56.625 L142.1875,51.90625 L153.125,51.90625 C157.647656,51.90625 161.328125,55.0819687 161.328125,58.984375 L161.328125,132.125 L13.671875,132.125 L13.671875,58.984375 L13.671875,58.984375 Z M155.859375,146.28125 L19.140625,146.28125 C12.5371094,146.28125 7.01367188,142.220766 5.74492188,136.84375 L10.9375,136.84375 L164.0625,136.84375 L169.255078,136.84375 C167.986328,142.220766 162.462891,146.28125 155.859375,146.28125 L155.859375,146.28125 Z" id="Shape"></path>
            <path d="M80.5191406,94.6227344 L64.1128906,87.5446094 C63.2652344,87.1812656 62.25625,87.2190156 61.4523438,87.6484219 C60.6484375,88.0778281 60.15625,88.8375469 60.15625,89.65625 L60.15625,103.8125 C60.15625,104.631203 60.6484375,105.388562 61.4550781,105.820328 C61.8925781,106.053906 62.3902344,106.171875 62.890625,106.171875 C63.3089844,106.171875 63.7273438,106.089297 64.1128906,105.921781 L80.5191406,98.8436562 C81.4460938,98.4449219 82.03125,97.6285781 82.03125,96.734375 C82.03125,95.8401719 81.4460938,95.0238281 80.5191406,94.6227344 L80.5191406,94.6227344 Z M65.625,99.9950312 L65.625,93.4737187 L73.1828125,96.734375 L65.625,99.9950312 L65.625,99.9950312 Z" id="Shape"></path>
            <path d="M103.90625,75.5 L35.546875,75.5 C34.0347656,75.5 32.8125,76.557 32.8125,77.859375 L32.8125,115.609375 C32.8125,116.91175 34.0347656,117.96875 35.546875,117.96875 L103.90625,117.96875 C105.418359,117.96875 106.640625,116.91175 106.640625,115.609375 L106.640625,77.859375 C106.640625,76.557 105.418359,75.5 103.90625,75.5 L103.90625,75.5 Z M101.171875,113.25 L38.28125,113.25 L38.28125,80.21875 L101.171875,80.21875 L101.171875,113.25 L101.171875,113.25 Z" id="Shape"></path>
            <rect id="Rectangle-path" x="139.453125" y="84.9375" width="5.46875" height="4.71875"></rect>
            <rect id="Rectangle-path" x="128.515625" y="84.9375" width="5.46875" height="4.71875"></rect>
            <rect id="Rectangle-path" x="112.109375" y="84.9375" width="10.9375" height="4.71875"></rect>
            <rect id="Rectangle-path" x="112.109375" y="94.375" width="32.8125" height="4.71875"></rect>
            <rect id="Rectangle-path" x="112.109375" y="103.8125" width="32.8125" height="4.71875"></rect>
            <rect id="Rectangle-path" x="112.109375" y="113.25" width="32.8125" height="4.71875"></rect>
            <rect id="Rectangle-path" x="32.8125" y="66.0625" width="19.140625" height="4.71875"></rect>
            <rect id="Rectangle-path" x="57.421875" y="66.0625" width="5.46875" height="4.71875"></rect>
            <rect id="Rectangle-path" x="68.359375" y="66.0625" width="5.46875" height="4.71875"></rect>
            <rect id="Rectangle-path" x="79.296875" y="66.0625" width="5.46875" height="4.71875"></rect>
            <rect id="Rectangle-path" x="90.234375" y="66.0625" width="16.40625" height="4.71875"></rect>
        </g>
    </g>
</svg>
