<?xml version="1.0" encoding="iso-8859-1"?>
<!-- Generator: Adobe Illustrator 19.0.0, SVG Export Plug-In . SVG Version: 6.00 Build 0)  -->
<svg version="1.1" id="Layer_1" xmlns="http://www.w3.org/2000/svg" xmlns:xlink="http://www.w3.org/1999/xlink" x="0px" y="0px"
	 viewBox="-17 -12 100 98.5" style="enable-background:new 0 0 64 64;" xml:space="preserve">
<g>
	<g>
		<path d="M63,56h-2V25c0-2.757-0.243-5-5-5h-5h-8h-1V8.721l4-1.333v4.797c-1.161,0.414-2,1.514-2,2.816c0,1.654,1.346,3,3,3
			s3-1.346,3-3c0-1.302-0.839-2.402-2-2.816V6c0-0.431-0.275-0.812-0.684-0.949l-15-5c-0.205-0.068-0.428-0.068-0.633,0l-15,5
			C16.275,5.188,16,5.569,16,6c0,0.431,0.275,0.812,0.684,0.949L22,8.721V20H8c-2.757,0-5,2.243-5,5v31H1c-0.553,0-1,0.448-1,1
			c0,3.86,3.141,7,7,7h50c3.859,0,7-3.14,7-7C64,56.448,63.553,56,63,56z M47,14c0.552,0,1,0.449,1,1s-0.448,1-1,1s-1-0.449-1-1
			S46.448,14,47,14z M44,22h6v8.382l-2.553-1.276C47.307,29.035,47.153,29,47,29s-0.307,0.035-0.447,0.105L44,30.382V22z
			 M42.475,32.851c0.294,0.183,0.661,0.197,0.973,0.044L47,31.118l3.553,1.776C50.694,32.965,50.847,33,51,33
			c0.183,0,0.365-0.05,0.525-0.149C51.82,32.668,52,32.347,52,32v-6h3v26H9V26h33v6C42,32.347,42.18,32.668,42.475,32.851z
			 M20.162,6L32,2.054L43.838,6L32,9.946L20.162,6z M40,9.388V20H24V9.388l7.684,2.561C31.786,11.983,31.894,12,32,12
			s0.214-0.017,0.316-0.051L40,9.388z M5,25c0-1.654,1.346-3,3-3h34v2H8c-0.553,0-1,0.448-1,1v28c0,0.552,0.447,1,1,1h48
			c0.553,0,1-0.448,1-1V25c0-0.552-0.447-1-1-1h-4v-2h4c1.654,0,3,1.346,3,3v31H5V25z M57,62H7c-2.415,0-4.435-1.721-4.899-4H4h56
			h1.899C61.435,60.279,59.415,62,57,62z"/>
	</g>
</g>
<g>
	<g>
		<path d="M29.447,40.105l-6-3c-0.31-0.154-0.679-0.138-0.973,0.044S22,37.653,22,38v6c0,0.347,0.18,0.668,0.475,0.851
			C22.635,44.95,22.817,45,23,45c0.153,0,0.306-0.035,0.447-0.106l6-3C29.786,41.725,30,41.379,30,41S29.786,40.275,29.447,40.105z
			 M24,42.382v-2.764L26.764,41L24,42.382z"/>
	</g>
</g>
<g>
	<g>
		<path d="M38,32H13c-0.553,0-1,0.448-1,1v16c0,0.552,0.447,1,1,1h25c0.553,0,1-0.448,1-1V33C39,32.448,38.553,32,38,32z M37,48H14
			V34h23V48z"/>
	</g>
</g>
<g>
	<g>
		<rect x="51" y="36" width="2" height="2"/>
	</g>
</g>
<g>
	<g>
		<rect x="47" y="36" width="2" height="2"/>
	</g>
</g>
<g>
	<g>
		<rect x="41" y="36" width="4" height="2"/>
	</g>
</g>
<g>
	<g>
		<rect x="41" y="40" width="12" height="2"/>
	</g>
</g>
<g>
	<g>
		<rect x="41" y="44" width="12" height="2"/>
	</g>
</g>
<g>
	<g>
		<rect x="41" y="48" width="12" height="2"/>
	</g>
</g>
<g>
	<g>
		<rect x="12" y="28" width="7" height="2"/>
	</g>
</g>
<g>
	<g>
		<rect x="21" y="28" width="2" height="2"/>
	</g>
</g>
<g>
	<g>
		<rect x="25" y="28" width="2" height="2"/>
	</g>
</g>
<g>
	<g>
		<rect x="29" y="28" width="2" height="2"/>
	</g>
</g>
<g>
	<g>
		<rect x="33" y="28" width="6" height="2"/>
	</g>
</g>
<g>
</g>
<g>
</g>
<g>
</g>
<g>
</g>
<g>
</g>
<g>
</g>
<g>
</g>
<g>
</g>
<g>
</g>
<g>
</g>
<g>
</g>
<g>
</g>
<g>
</g>
<g>
</g>
<g>
</g>
</svg>
