
<svg width="220px" height="159px" viewBox="413 189 220 159" version="1.1" xmlns="http://www.w3.org/2000/svg" xmlns:xlink="http://www.w3.org/1999/xlink">
    <!-- Generator: Sketch 3.8.1 (29687) - http://www.bohemiancoding.com/sketch -->
    <desc>Created with Sketch.</desc>
    <defs>
        <filter x="-50%" y="-50%" width="200%" height="200%" filterUnits="objectBoundingBox" id="filter-1">
            <feOffset dx="0" dy="4" in="SourceAlpha" result="shadowOffsetOuter1"></feOffset>
            <feGaussianBlur stdDeviation="2" in="shadowOffsetOuter1" result="shadowBlurOuter1"></feGaussianBlur>
            <feColorMatrix values="0 0 0 0 0   0 0 0 0 0   0 0 0 0 0  0 0 0 0.5 0" type="matrix" in="shadowBlurOuter1" result="shadowMatrixOuter1"></feColorMatrix>
            <feMerge>
                <feMergeNode in="shadowMatrixOuter1"></feMergeNode>
                <feMergeNode in="SourceGraphic"></feMergeNode>
            </feMerge>
        </filter>
    </defs>
    <g id="networking" filter="url(#filter-1)" stroke="none" stroke-width="1" fill="none" fill-rule="evenodd" transform="translate(417.000000, 189.000000)">
        <g id="co-founder-business-entrepneur-startup" fill="#000000">
            <rect id="Rectangle-path" x="115.818544" y="19.8833434" width="6.67407407" height="4.68273773"></rect>
            <rect id="Rectangle-path" transform="translate(49.076201, 127.585797) rotate(-45.000000) translate(-49.076201, -127.585797) " x="45.7391959" y="124.275133" width="6.67401007" height="6.62132766"></rect>
            <path d="M178.244496,97.8345371 L168.233385,90.8104305 C167.592674,90.3585463 166.671652,90.0846062 165.807359,90.1244094 C164.899685,90.1384577 164.03873,90.4100565 163.421378,90.8783302 L163.060978,91.5222067 L160.177778,89.1550827 L160.177778,83.1003028 C160.177778,82.4798401 159.827389,81.882791 159.200026,81.4449551 L140.155556,68.0827629 L140.155556,52.6625076 C140.155556,52.0420448 139.805167,51.4449958 139.177804,51.0071598 L133.481481,47.0104431 L133.481481,43.2970321 C133.481481,43.2970321 136.818519,42.2480988 136.818519,40.9556632 L136.818519,31.5901878 L136.818519,0.466371411 L130.144444,0.466371411 L130.144444,28.5627978 L83.4259259,28.5627978 L83.4259259,0.466371411 L76.7518519,0.466371411 L76.7518519,31.5901878 L76.7518519,40.9556632 C76.7518519,42.2480988 76.7518519,43.2970321 80.0888889,43.2970321 L80.0888889,47.0104431 L67.7184926,55.6898975 C67.0911296,56.1277335 66.7407407,56.7247826 66.7407407,57.3452453 L66.7407407,63.4000252 L51.0333074,74.4208485 C50.4059444,74.8586844 50.0555556,75.4557335 50.0555556,76.0761962 L50.0555556,89.1550827 L46.2313111,91.4964516 L45.0099556,90.8104305 C43.7051741,89.8949553 41.4726963,89.8949553 40.1679148,90.8104305 L30.096737,97.8345371 L0.0333703704,118.906857 L4.73525556,122.217553 L32.4026296,102.80058 L67.7218296,127.586311 L40.0444444,147.003283 L44.7630148,150.313979 L74.7963481,129.241659 L84.8074593,122.217553 C86.1122407,121.302077 86.1122407,119.822332 84.8074593,118.906857 L83.8297074,118.220836 L87.3469444,115.753033 C87.9242519,115.825616 88.5149074,115.879467 89.1222481,115.879467 C90.4403778,115.879467 91.6917667,115.689816 92.8463815,115.364366 C94.0009963,118.349611 97.8552741,120.562205 102.470396,120.562205 C106.024341,120.562205 109.134459,118.902174 110.909763,116.937766 C112.368048,117.518425 114.026556,117.534815 115.818544,117.534815 L121.111085,117.534815 L124.408078,120.189927 L123.38027,121.142864 C122.165589,122.067705 122.205633,123.582571 123.473707,124.472291 L133.484819,131.538542 L160.181115,150.290565 L164.899685,146.991576 L140.472574,129.855098 L152.309044,120.859559 L175.985322,102.863797 L206.896296,124.558921 L211.614867,121.248226 L178.244496,97.8345371 L178.244496,97.8345371 Z M130.144444,33.2455356 L130.144444,37.9282733 L83.4259259,37.9282733 L83.4259259,33.2455356 L130.144444,33.2455356 L130.144444,33.2455356 Z M72.437063,124.275616 L37.1111889,99.4898849 L42.4037296,95.7764739 L43.3814815,96.462495 L76.7518519,119.876184 L77.7296037,120.562205 L72.437063,124.275616 L72.437063,124.275616 Z M50.459337,94.8071472 L55.2613333,91.7797572 C55.8886963,91.3419213 56.7296296,90.7448722 56.7296296,90.1244094 L56.7296296,77.045523 L66.7407407,70.0214164 L66.7407407,73.7348274 C66.7407407,74.3552901 67.0911296,74.9523392 67.7184926,75.3901752 L80.0888889,84.0696296 L80.0888889,108.85536 C80.0888889,110.545829 80.4893333,112.074743 81.9109111,113.289913 L79.3547407,114.91014 L50.459337,94.8071472 L50.459337,94.8071472 Z M113.459259,111.196729 L113.459259,75.3901752 L106.785185,75.3901752 L106.785185,111.196729 L106.785185,113.538098 C106.785185,114.828192 105.286856,115.879467 103.448148,115.879467 C101.609441,115.879467 100.111111,114.828192 100.111111,113.538098 L100.111111,108.85536 L100.111111,75.3901752 L93.437037,75.3901752 L93.437037,108.85536 C93.437037,110.145455 91.9387074,111.196729 90.1,111.196729 C88.2612926,111.196729 86.762963,110.145455 86.762963,108.85536 L86.762963,70.7074374 L80.0888889,70.7074374 L80.0888889,77.4482384 L73.4148148,72.7655007 L73.4148148,66.7107208 L73.4148148,62.027983 L73.4148148,58.314572 L85.7852111,49.6351176 C86.4125741,49.1972816 86.762963,48.6002326 86.762963,47.9797698 L86.762963,42.611011 L126.807407,42.611011 L126.807407,47.9797698 C126.807407,48.6002326 127.157796,49.1972816 127.785159,49.6351176 L133.481481,53.6318343 L133.481481,99.4898849 C133.481481,100.779979 131.983152,101.831254 130.144444,101.831254 C128.305737,101.831254 126.807407,100.779979 126.807407,99.4898849 L126.807407,75.3901752 L120.133333,75.3901752 L120.133333,99.4898849 L120.133333,111.196729 C120.133333,112.486824 118.635004,113.538098 116.796296,113.538098 C114.957589,113.538098 113.459259,112.486824 113.459259,111.196729 L113.459259,111.196729 Z M124.851904,114.224119 C124.841893,114.217095 125.319089,114.217095 125.312415,114.210071 C125.939778,113.294596 126.807407,112.280783 126.807407,111.196729 L126.807407,106.08318 C126.807407,106.345413 128.969807,106.513992 130.144444,106.513992 C135.663904,106.513992 140.155556,103.362509 140.155556,99.4898849 L140.155556,74.7041541 L153.503704,84.0696296 L153.503704,90.1244094 C153.503704,90.7448722 153.366885,91.3419213 153.990911,91.7797572 L158.168881,94.8844124 L143.469233,106.13469 L128.993167,117.089955 L124.851904,114.224119 L124.851904,114.224119 Z M130.828537,122.55471 C131.115522,122.4353 131.405844,122.313549 131.632763,122.137946 L148.33797,109.244028 L165.967537,95.8443736 L171.253404,99.5554432 L159.416933,108.553324 L135.740656,126.549085 L130.454789,122.838015 L130.828537,122.55471 L130.828537,122.55471 Z" id="Shape"></path>
            <rect id="Rectangle-path" transform="translate(175.882941, 115.879655) rotate(-45.000000) translate(-175.882941, -115.879655) " x="171.164416" y="113.538309" width="9.43705024" height="4.68269283"></rect>
            <path d="M105.807433,139.293156 C94.6617296,139.293156 83.8463926,137.77829 73.6584185,134.788362 L71.085563,139.110529 C82.0911111,142.339277 93.7740778,143.975893 105.807433,143.975893 C115.27127,143.975893 124.598289,142.950374 133.5282,140.927431 L131.479259,136.469465 C123.213419,138.34256 114.57383,139.293156 105.807433,139.293156 L105.807433,139.293156 Z" id="Shape"></path>
            <path d="M189.233359,80.758934 C189.233359,86.2447612 188.155496,91.6720543 186.026467,96.8909655 L192.443589,98.1810597 C194.742807,92.5430435 195.91077,86.6802558 195.91077,80.7612753 C195.91077,56.315043 175.508126,33.8238537 143.933081,23.4656378 L141.106611,27.7081982 C170.339056,37.2984451 189.233359,58.1225798 189.233359,80.758934 L189.233359,80.758934 Z" id="Shape"></path>
            <path d="M25.4415704,96.5186878 C23.4093148,91.4145037 22.3815074,86.1113032 22.3815074,80.758934 C22.3815074,58.1225798 41.2758111,37.2984451 70.5115926,27.7058568 L67.6851222,23.4632964 C36.1100778,33.8215123 15.7074333,56.3127016 15.7074333,80.758934 C15.7074333,86.5374323 16.8186667,92.2620792 19.0111,97.7760029 L25.4415704,96.5186878 L25.4415704,96.5186878 Z" id="Shape"></path>
        </g>
    </g>
</svg>
