
<svg width="266px" height="451px" viewBox="646 273 266 451" version="1.1" xmlns="http://www.w3.org/2000/svg" xmlns:xlink="http://www.w3.org/1999/xlink">
    <!-- Generator: Sketch 3.8.1 (29687) - http://www.bohemiancoding.com/sketch -->
    <desc>Created with Sketch.</desc>
    <defs></defs>
    <g id="Group-3" stroke="none" stroke-width="1" fill="none" fill-rule="evenodd" transform="translate(646.000000, 273.000000)">
        <g id="hat2" fill="#000000">
            <g id="Layer_1">
                <g id="Group">
                    <path d="M52.4264854,21.8085893 C55.0525397,21.8085893 57.1749749,20.1801863 57.1749749,18.1739664 C57.1749749,16.1677466 55.0525397,14.5393435 52.4264854,14.5393435 L52.3791841,14.5393435 C49.7581381,14.5393435 47.6540669,16.1677466 47.6540669,18.1739664 C47.6540669,20.1801863 49.8054393,21.8085893 52.4264854,21.8085893 L52.4264854,21.8085893 Z" id="Shape"></path>
                    <path d="M36.8081674,87.5614862 C37.2210795,87.6449722 37.6345481,87.688845 38.0430084,87.688845 C40.1420711,87.688845 42.0558243,86.6167313 42.6256653,84.9917359 C43.3045774,83.0506862 41.7992845,81.0589486 39.2683891,80.5392908 C39.2494686,80.5354573 36.9940335,80.0196331 35.1370418,78.758398 C32.8009163,77.1734418 32.1642971,75.1561472 33.1281297,72.401109 C35.7541841,64.9061103 28.7024017,61.3404911 24.0346025,58.9849931 C18.9299623,56.404168 18.1558912,55.5829383 18.8821046,53.5145299 C20.7719289,48.1130705 19.0434854,43.2534182 14.0006151,39.8330477 C10.4580293,37.4268617 6.46914226,36.5617593 6.02784937,36.4710321 C3.47803347,35.9441332 0.889820084,37.1035664 0.21090795,39.0407825 C-0.468004184,40.9818322 1.0372887,42.9735697 3.5681841,43.4932275 C3.59211297,43.4970611 5.84754812,44.0128853 7.70453975,45.2741203 C10.0362134,46.8590766 10.6772845,48.8763711 9.70844351,51.6314093 C7.08739749,59.1264081 14.1391799,62.6920273 18.8019707,65.0475253 C23.9116192,67.6283504 24.680682,68.4495801 23.9544686,70.5179885 C22.0646444,75.9194479 23.7975397,80.7791001 28.8359582,84.1994707 C32.3824393,86.6056567 36.3668745,87.4707591 36.8081674,87.5614862 L36.8081674,87.5614862 Z" id="Shape"></path>
                    <path d="M194.886736,43.6171787 C197.512791,43.6171787 199.635226,41.9887756 199.635226,39.9825558 C199.635226,37.9763359 197.512791,36.3479329 194.886736,36.3479329 L194.839435,36.3479329 C192.218389,36.3479329 190.114318,37.9763359 190.114318,39.9825558 C190.114318,41.9887756 192.26569,43.6171787 194.886736,43.6171787 L194.886736,43.6171787 Z" id="Shape"></path>
                    <path d="M240.578636,32.8364092 C238.042732,33.356067 236.542448,35.3516381 237.22136,37.2888542 C237.225812,37.3071701 237.767272,39.0590983 237.273669,40.916236 C236.647067,43.2568258 234.681004,44.6892924 231.081657,45.427036 C221.289741,47.4332559 220.781669,53.8889391 220.449448,58.1633374 C220.083837,62.8411094 219.542377,63.7607334 216.835632,64.3131892 C209.778841,65.7635456 205.149439,69.3402395 203.796067,74.3885871 C202.846146,77.9435576 203.862289,81.0184835 203.981377,81.356261 C204.551218,82.9808306 206.469423,84.0533702 208.564033,84.0533702 C208.972494,84.0533702 209.385406,84.0099234 209.798874,83.9260114 C212.32977,83.4063536 213.835063,81.4107825 213.156151,79.4735664 C213.151142,79.4552506 212.60523,77.7033223 213.103841,75.8461846 C213.730444,73.5090024 215.696506,72.0731283 219.295854,71.3353846 C229.08777,69.3253312 229.595841,62.870074 229.928063,58.5990833 C230.293674,53.9213112 230.835134,53.0050949 233.541879,52.4492314 C240.598669,51.0027086 245.228071,47.4221812 246.576992,42.3738335 C247.526912,38.8226966 246.515222,35.7439372 246.39669,35.4061596 C245.716665,33.4689435 243.11454,32.3129179 240.578636,32.8364092 L240.578636,32.8364092 Z" id="Shape"></path>
                    <path d="M33.4319707,116.312619 L33.3846695,116.312619 C30.7636234,116.312619 28.6595523,117.941022 28.6595523,119.947241 C28.6595523,121.953461 30.8109247,123.581864 33.4319707,123.581864 C36.0580251,123.581864 38.1804603,121.953461 38.1804603,119.947241 C38.1804603,117.941022 36.0580251,116.312619 33.4319707,116.312619 L33.4319707,116.312619 Z" id="Shape"></path>
                    <path d="M261.254293,114.687623 C258.514159,110.496711 258.386167,109.493601 260.366142,107.977648 C269.7969,100.75909 265.532552,92.2537405 260.366142,88.2992299 C258.519167,86.8889127 255.550874,86.8927463 253.689431,88.2881552 C251.832439,89.6873977 251.809067,91.9845408 253.623209,93.4170073 C255.042803,94.5436424 259.250389,98.5492669 253.65159,102.838148 C246.481276,108.326501 250.260925,114.10961 252.758987,117.936762 C255.499121,122.127674 255.632121,123.130784 253.65159,124.646737 C244.215824,131.865295 248.480172,140.370645 253.65159,144.325155 C254.572573,145.030527 255.779033,145.38662 256.984937,145.38662 C258.190841,145.38662 259.392293,145.033934 260.323293,144.33623 C262.180285,142.936987 262.203657,140.639844 260.389515,139.207378 C258.969921,138.080743 254.762335,134.075118 260.365586,129.786238 C267.532004,124.297885 263.752356,118.515201 261.254293,114.687623 L261.254293,114.687623 Z" id="Shape"></path>
                    <path d="M150.876536,49.6000585 C149.898234,47.7463284 147.134728,46.8450203 144.698435,47.5938387 C142.262142,48.3460646 141.089628,50.4617534 142.072381,52.3261322 L225.696548,210.816222 L74.0426025,210.816222 L198.951862,188.229849 C201.506686,187.768121 203.087661,185.809181 202.484987,183.857057 C201.881757,181.901525 199.317473,180.68757 196.767657,181.152707 L41.1248243,209.300695 L57.9918954,177.292757 L179.216109,155.400681 C181.765925,154.942786 183.347456,152.983421 182.744226,151.031722 C182.146004,149.07619 179.576711,147.858402 177.036356,148.327372 L62.3419414,169.042124 L79.1188619,137.208825 L159.927213,122.575347 C162.477029,122.113618 164.058561,120.154679 163.455331,118.202554 C162.8521,116.247022 160.273904,115.040309 157.742452,115.502038 L83.4683515,128.950526 L100.0889,97.4115571 L143.458586,89.5204257 C146.01341,89.0552894 147.589933,87.095924 146.982251,85.1442256 C146.374569,83.1886937 143.810285,81.9819801 141.264921,82.45095 L104.443954,89.1460166 L128.590967,43.3262555 C130.03449,43.5008946 131.506393,43.6171787 133.012243,43.6171787 C148.72572,43.6171787 161.504293,33.8361116 161.504293,21.8085893 C161.504293,9.78106713 148.725163,0 133.011686,0 C117.303218,0 104.519636,9.78106713 104.519636,21.8085893 C104.519636,30.1141691 110.617046,37.3433757 119.563661,41.0257049 L28.8877113,213.091641 C28.7786402,213.298653 28.7263305,213.509497 28.6690126,213.724176 C28.6500921,213.778697 28.6217113,213.833219 28.6072427,213.88774 C28.5215439,214.30943 28.5549331,214.734527 28.6640042,215.148975 C28.6784728,215.196255 28.6545439,215.239702 28.6690126,215.286983 C28.6834812,215.33767 28.7257741,215.374302 28.745251,215.42499 C28.8637824,215.741044 29.0251632,216.043042 29.2533222,216.333539 C29.2817029,216.369745 29.2961715,216.413618 29.3295607,216.449823 C29.3390209,216.460898 29.3440293,216.47538 29.3534895,216.486029 C29.6144812,216.776952 29.9327908,217.024003 30.2844895,217.245496 C30.3746402,217.303851 30.4792594,217.347298 30.5788703,217.401819 C30.873251,217.558143 31.1865523,217.692743 31.5193305,217.794544 C31.6428703,217.834584 31.7614017,217.870789 31.8899498,217.903587 C32.336251,218.008797 32.7970209,218.081634 33.2767113,218.085468 L33.2861715,218.085468 L33.2911799,218.085468 L232.735531,218.085468 C234.317063,218.085468 235.788967,217.485731 236.672109,216.482621 C237.555251,215.482919 237.7311,214.211035 237.137331,213.087808 L150.876536,49.6000585 L150.876536,49.6000585 Z M114.017172,21.8085893 C114.017172,13.7900992 122.540858,7.26967177 133.011686,7.26967177 C143.487523,7.26967177 152.006201,13.7905252 152.006201,21.8085893 C152.006201,29.8266535 143.486967,36.3475069 133.011686,36.3475069 C122.540858,36.3475069 114.017172,29.8270795 114.017172,21.8085893 L114.017172,21.8085893 Z" id="Shape"></path>
                </g>
            </g>
        </g>
        <g id="phone" transform="translate(14.973510, 218.085893)" fill="#000000">
            <g id="Capa_1">
                <path d="M218.131424,0 L16.9416198,0 C7.82908187,0 0.420389495,4.12398124 0.420389495,9.27141025 L0.420389495,222.706632 C0.420389495,227.82042 7.88749065,231.977611 16.9416198,231.977611 L218.131424,231.977611 C227.243962,231.977611 234.651886,227.85363 234.651886,222.706632 L234.651886,9.30418818 C234.651886,4.19039968 227.244731,0 218.131424,0 L218.131424,0 Z M117.536906,7.75370579 C124.415309,7.75370579 129.941855,10.8551019 129.941855,14.7155658 C129.941855,18.5760297 124.415309,21.6774258 117.536906,21.6774258 C110.657736,21.6774258 105.131189,18.5760297 105.131189,14.7155658 C105.131189,10.8551019 110.657736,7.75370579 117.536906,7.75370579 L117.536906,7.75370579 Z M118.183246,224.257546 C108.600363,224.257546 100.89809,219.935603 100.89809,214.557866 C100.89809,209.179266 108.599595,204.857323 118.183246,204.857323 C127.766896,204.857323 135.468401,209.179266 135.468401,214.557866 C135.46917,219.935172 127.708488,224.257546 118.183246,224.257546 L118.183246,224.257546 Z M214.015911,189.482317 C214.015911,192.055816 210.313102,194.134627 205.727244,194.134627 L29.3481054,194.134627 C24.7622478,194.134627 21.0579016,192.055816 21.0579016,189.482317 L21.0579016,34.0493695 C21.0579016,31.4758706 24.7622478,29.3970598 29.3481054,29.3970598 L205.727244,29.3970598 C210.313102,29.3970598 214.015911,31.4754394 214.015911,34.0493695 L214.015911,189.482317 L214.015911,189.482317 Z" id="Shape"></path>
            </g>
        </g>
    </g>
</svg>
