
<svg width="100%" height="auto" viewBox="20 273 500 451" version="1.1" xmlns="http://www.w3.org/2000/svg" xmlns:xlink="http://www.w3.org/1999/xlink">
    <!-- Generator: Sketch 3.8.1 (29687) - http://www.bohemiancoding.com/sketch -->
    <desc>Created with Sketch.</desc>
    <defs></defs>
    <g id="Group-2" stroke="none" stroke-width="1" fill="none" fill-rule="evenodd" transform="translate(92.000000, 273.000000)">
        <g id="hat2" transform="translate(31.510703, 0.000000)" fill="#000000">
            <g id="Layer_1">
                <g id="Group">
                    <path d="M60.3306601,22.2430739 C63.3526364,22.2430739 65.7950643,20.5822288 65.7950643,18.5360397 C65.7950643,16.4898507 63.3526364,14.8290056 60.3306601,14.8290056 L60.2762274,14.8290056 C57.2600146,14.8290056 54.8387193,16.4898507 54.8387193,18.5360397 C54.8387193,20.5822288 57.3144473,22.2430739 60.3306601,22.2430739 L60.3306601,22.2430739 Z" id="Shape"></path>
                    <path d="M42.3576179,89.3059418 C42.8327835,89.391091 43.3085895,89.4358378 43.778632,89.4358378 C46.1941638,89.4358378 48.3964474,88.3423648 49.0522015,86.6849952 C49.8334711,84.7052747 48.1012299,82.6738565 45.1887595,82.1438457 C45.1669864,82.1399358 42.5715065,81.613835 40.4345421,80.3274728 C37.7462063,78.7109401 37.013606,76.6534557 38.1227527,73.8435299 C41.1447289,66.199211 33.0297717,62.5625553 27.6582232,60.1601295 C21.7839727,57.5278876 20.8931973,56.6902969 21.7288996,54.5806804 C23.9036466,49.0716096 21.9146112,44.1151403 16.1114433,40.626627 C12.0347532,38.1725034 7.4444743,37.2901659 6.93664909,37.1976312 C4.00240554,36.6602351 1.02397543,37.8427672 0.242705872,39.8185778 C-0.538563689,41.7982982 1.19367743,43.8297165 4.10614789,44.3597272 C4.13368444,44.3636371 6.72916438,44.889738 8.86612875,46.1761001 C11.5493414,47.7926329 12.2870648,49.8501172 11.1721547,52.6600431 C8.15594191,60.304362 16.2708992,63.9410177 21.6366841,66.3434434 C27.5166982,68.9756853 28.4017101,69.8132761 27.5660078,71.9228926 C25.3912607,77.4319633 27.3854193,82.3884327 33.183464,85.876946 C37.2646369,88.3310695 41.8497927,89.2134071 42.3576179,89.3059418 L42.3576179,89.3059418 Z" id="Shape"></path>
                    <path d="M224.269191,44.4861478 C227.291167,44.4861478 229.733595,42.8253027 229.733595,40.7791137 C229.733595,38.7329246 227.291167,37.0720795 224.269191,37.0720795 L224.214758,37.0720795 C221.198545,37.0720795 218.77725,38.7329246 218.77725,40.7791137 C218.77725,42.8253027 221.252978,44.4861478 224.269191,44.4861478 L224.269191,44.4861478 Z" id="Shape"></path>
                    <path d="M276.849913,33.490597 C273.931679,34.0206078 272.205202,36.0559359 272.986471,38.0317465 C272.991594,38.0504272 273.614689,39.8372585 273.046667,41.7313953 C272.325594,44.1186158 270.063114,45.5796208 265.921105,46.3320623 C254.652892,48.3782513 254.068221,54.9625488 253.685911,59.3221044 C253.265178,64.0930699 252.642084,65.0310152 249.527252,65.5944774 C241.406531,67.0737287 236.079169,70.7216797 234.521753,75.8706038 C233.428616,79.4963986 234.597959,82.6325852 234.735001,82.9770921 C235.390755,84.6340274 237.598162,85.7279348 240.008571,85.7279348 C240.478613,85.7279348 240.953779,85.6836224 241.429585,85.5980387 C244.342055,85.068028 246.074296,83.0326998 245.293027,81.0568893 C245.287263,81.0382086 244.659046,79.2513773 245.232831,77.3572405 C245.953904,74.9734954 248.216384,73.5090149 252.358393,72.7565734 C263.626606,70.7064745 264.211277,64.1226115 264.593587,59.7665314 C265.01432,54.9955658 265.637414,54.061096 268.752246,53.4941583 C276.872967,52.0188169 282.200329,48.366956 283.752622,43.218032 C284.845759,39.596147 283.681539,36.4560506 283.545137,36.1115436 C282.762587,34.1357331 279.768147,32.9566764 276.849913,33.490597 L276.849913,33.490597 Z" id="Shape"></path>
                    <path d="M38.4724028,118.629872 L38.4179701,118.629872 C35.4017573,118.629872 32.980462,120.290717 32.980462,122.336907 C32.980462,124.383096 35.45619,126.043941 38.4724028,126.043941 C41.4943791,126.043941 43.936807,124.383096 43.936807,122.336907 C43.936807,120.290717 41.4943791,118.629872 38.4724028,118.629872 L38.4724028,118.629872 Z" id="Shape"></path>
                    <path d="M300.642773,116.972503 C297.489518,112.698096 297.34223,111.675002 299.620719,110.128848 C310.473322,102.766477 305.566052,94.0916781 299.620719,90.0583832 C297.495282,88.6199688 294.079469,88.6238788 291.937381,90.0470879 C289.800417,91.474207 289.773521,93.8171152 291.861175,95.2781202 C293.494797,96.4272009 298.336747,100.512628 291.893835,104.886954 C283.642476,110.48465 287.99197,116.382974 290.866658,120.286373 C294.019913,124.560779 294.172965,125.583874 291.893835,127.130028 C281.035469,134.492399 285.942738,143.167198 291.893835,147.200493 C292.953672,147.919917 294.342026,148.283105 295.72974,148.283105 C297.117454,148.283105 298.500045,147.923392 299.571409,147.211788 C301.708374,145.784669 301.73527,143.441761 299.647615,141.980756 C298.013993,140.831675 293.172043,136.746248 299.620079,132.371921 C307.866955,126.774226 303.517461,120.876336 300.642773,116.972503 L300.642773,116.972503 Z" id="Shape"></path>
                    <path d="M173.623712,50.5882224 C172.497915,48.6975611 169.317764,47.7782965 166.514159,48.5420333 C163.710554,49.3092456 162.361263,51.4670844 163.492183,53.3686066 L259.7241,215.016236 L85.2057706,215.016236 L228.947203,191.979884 C231.88721,191.508956 233.706543,189.51099 233.013006,187.519974 C232.318829,185.525483 229.367935,184.287343 226.433692,184.761746 L47.3250835,213.470516 L66.7351494,180.824896 L206.235953,158.496672 C209.170196,158.029655 210.99017,156.031254 210.295993,154.040672 C209.607579,152.046181 206.650922,150.804131 203.727565,151.282444 L71.741038,172.409889 L91.0473616,139.942386 L184.038932,125.017371 C186.973175,124.546443 188.793149,122.548476 188.098972,120.557461 C187.404795,118.562969 184.437891,117.332215 181.524781,117.803142 L96.0526098,131.51956 L115.178985,99.352252 L165.087381,91.3039085 C168.027388,90.8295054 169.841599,88.8311043 169.142298,86.8405229 C168.442998,84.8460317 165.492105,83.6152772 162.562984,84.0935902 L120.190637,90.9220401 L147.978218,44.1894287 C149.639377,44.3675471 151.333195,44.4861478 153.066076,44.4861478 C171.148624,44.4861478 185.853782,34.5102161 185.853782,22.2430739 C185.853782,9.97593176 171.147984,0 153.065436,0 C134.988651,0 120.27773,9.97593176 120.27773,22.2430739 C120.27773,30.7141227 127.294427,38.0873542 137.589895,41.8430451 L33.2430198,217.336988 C33.1175044,217.548124 33.0573082,217.763169 32.9913486,217.982124 C32.9695755,218.037732 32.9369158,218.09334 32.9202658,218.148947 C32.8216466,218.579038 32.8600697,219.012604 32.9855851,219.43531 C33.0022351,219.483532 32.9746986,219.527844 32.9913486,219.576066 C33.0079986,219.627764 33.0566678,219.665126 33.0790813,219.716823 C33.2154833,220.039174 33.4011949,220.347189 33.6637527,220.643473 C33.6964123,220.6804 33.7130623,220.725147 33.7514854,220.762074 C33.762372,220.773369 33.7681354,220.78814 33.779022,220.799001 C34.0793625,221.09572 34.4456626,221.347693 34.8503859,221.573599 C34.9541282,221.633116 35.0745206,221.677429 35.1891495,221.733036 C35.5279131,221.892474 35.8884498,222.029756 36.2713999,222.133586 C36.4135654,222.174422 36.5499674,222.211349 36.6978963,222.244801 C37.211485,222.352106 37.7417236,222.426395 38.2937354,222.430305 L38.304622,222.430305 L38.3103854,222.430305 L267.824329,222.430305 C269.644302,222.430305 271.33812,221.81862 272.354411,220.795526 C273.370702,219.775907 273.573064,218.478684 272.889773,217.333078 L173.623712,50.5882224 L173.623712,50.5882224 Z M131.207179,22.2430739 C131.207179,14.0648343 141.015954,7.41450278 153.065436,7.41450278 C165.120681,7.41450278 174.923693,14.0652688 174.923693,22.2430739 C174.923693,30.4208791 165.120041,37.071645 153.065436,37.071645 C141.015954,37.071645 131.207179,30.4213135 131.207179,22.2430739 L131.207179,22.2430739 Z" id="Shape"></path>
                </g>
            </g>
        </g>
        <g id="computer-image" transform="translate(0.000000, 219.903117)" fill="#000000">
            <g id="Capa_1">
                <g id="Group">
                    <path d="M335.613921,0.158846097 L31.776904,0.158846097 C14.287548,0.158846097 0,10.4834891 0,23.0991608 L0,169.208548 C0,181.824219 14.2979435,192.153366 31.776904,192.153366 L170.731209,192.153366 L170.731209,211.699175 L73.5043616,211.699175 L60.5411977,221.059964 L60.5411977,230.420754 L306.851706,230.420754 L306.851706,221.059964 L293.890621,211.699175 L196.657537,211.699175 L196.657537,192.153366 L335.613921,192.153366 C353.109514,192.153366 367.390825,181.824219 367.390825,169.208548 L367.390825,23.0991608 C367.392904,10.4834891 353.109514,0.158846097 335.613921,0.158846097 L335.613921,0.158846097 Z M354.427661,141.126179 C354.427661,148.622317 345.994847,154.71171 335.613921,154.71171 L31.776904,154.71171 C21.4022147,154.71171 12.9652429,148.622317 12.9652429,141.126179 L12.9652429,23.0991608 C12.9652429,15.6120306 21.4022147,9.51963552 31.776904,9.51963552 L335.616,9.51963552 C345.996927,9.51963552 354.42974,15.6135319 354.42974,23.0991608 L354.42974,141.126179 L354.427661,141.126179 Z" id="Shape"></path>
                    <path d="M233.19765,57.1478125 L222.816723,59.9177654 C221.373831,60.3021058 219.625311,60.1324556 218.943367,59.5424331 C218.232316,58.9524106 216.791503,56.680899 217.423548,55.6750083 L222.045379,48.4130775 C222.691977,47.4116907 222.072407,46.2136298 220.691887,45.7482176 L197.979842,38.1830183 C196.586847,37.7221101 194.927729,38.1650023 194.276972,39.1663891 L189.638508,46.4283199 C189.004384,47.4297067 187.605153,48.214902 186.542734,48.1698621 C185.480316,48.1233209 182.214056,47.2600564 181.681808,46.2226378 L177.839638,38.7039796 C177.309469,37.6665609 175.700249,37.1395943 174.263593,37.5149267 L150.773966,43.767964 C149.337311,44.1523044 148.597153,45.3128321 149.127322,46.3562561 L152.963254,53.8704102 C153.507977,54.9078289 153.262644,56.174951 152.44348,56.6718911 C151.63887,57.1748364 148.493198,58.2257671 147.10852,57.7648589 L137.05609,54.4153928 C135.669333,53.9574873 134.012294,54.3973769 133.365695,55.3987636 L122.876655,71.817303 C122.225898,72.8186898 122.851706,74.0152494 124.238463,74.4866669 L134.284655,77.8286263 C135.671412,78.2850305 136.75878,79.2999293 136.696407,80.0535967 C136.631955,80.8222774 135.436475,83.1838687 133.999819,83.563705 L123.593944,86.3396633 C122.151051,86.7240036 121.423367,87.8845313 121.941062,88.912942 L130.600497,105.885472 C131.132746,106.913883 132.739887,107.448356 134.170305,107.074525 L144.576181,104.295564 C146.019073,103.911224 147.765514,104.079373 148.455774,104.670896 C149.152271,105.251911 150.607638,107.523422 149.969356,108.538321 L145.330893,115.783737 C144.696768,116.785124 145.305944,117.981684 146.678147,118.448597 L169.427616,126.027309 C170.814373,126.485214 172.492203,126.046826 173.124249,125.040935 L177.752316,117.786511 C178.386441,116.785124 179.789831,116.007435 180.854328,116.044969 C181.910508,116.09151 185.17261,116.954774 185.698621,117.992193 L189.540791,125.498841 C190.07304,126.539262 191.680181,127.070733 193.104362,126.686392 L216.596068,120.433355 C218.03896,120.049014 218.772881,118.888487 218.240633,117.851068 L214.404701,110.335413 C213.872452,109.29349 214.113627,108.041381 214.924475,107.533932 C215.735322,107.030986 218.885153,105.980056 220.265672,106.440964 L230.343051,109.782923 C231.723571,110.240829 233.382689,109.800939 234.027209,108.801054 L244.495458,92.3915225 C245.142056,91.3901357 244.522486,90.1890721 243.141966,89.7221586 L233.10409,86.3801992 C231.711096,85.9132857 230.773424,83.5051532 230.773424,82.7274645 C230.773424,81.9497758 231.939797,81.0039382 233.395164,80.6195979 L243.815593,77.849645 C245.246011,77.4653046 245.967458,76.3047769 245.460158,75.2763662 L236.775774,58.3413695 C236.258079,57.3084548 234.638463,56.7649735 233.19765,57.1478125 L233.19765,57.1478125 Z M193.330983,100.968618 C178.922847,104.804515 162.913808,99.479299 157.597559,89.0705816 C152.287548,78.6573602 159.674576,67.1076324 174.074395,63.2672315 C188.480452,59.4313347 204.483254,64.7565504 209.801582,75.1652678 C215.103277,85.5709826 207.724565,97.1207104 193.330983,100.968618 L193.330983,100.968618 Z" id="Shape"></path>
                </g>
            </g>
        </g>
    </g>
</svg>
