
<svg width="100%" height="auto" viewBox="55 150 250 250" version="1.1" xmlns="http://www.w3.org/2000/svg" xmlns:xlink="http://www.w3.org/1999/xlink">
    <!-- Generator: Sketch 3.8.1 (29687) - http://www.bohemiancoding.com/sketch -->
    <desc>Created with Sketch.</desc>
    <defs>
        <filter x="-50%" y="-50%" width="200%" height="200%" filterUnits="objectBoundingBox" id="filter-1">
            <feOffset dx="0" dy="4" in="SourceAlpha" result="shadowOffsetOuter1"></feOffset>
            <feGaussianBlur stdDeviation="2" in="shadowOffsetOuter1" result="shadowBlurOuter1"></feGaussianBlur>
            <feColorMatrix values="0 0 0 0 0   0 0 0 0 0   0 0 0 0 0  0 0 0 0.5 0" type="matrix" in="shadowBlurOuter1" result="shadowMatrixOuter1"></feColorMatrix>
            <feMerge>
                <feMergeNode in="shadowMatrixOuter1"></feMergeNode>
                <feMergeNode in="SourceGraphic"></feMergeNode>
            </feMerge>
        </filter>
    </defs>
    <g id="pencil" filter="url(#filter-1)" stroke="none" stroke-width="1" fill="none" fill-rule="evenodd" transform="translate(93.000000, 194.000000)">
        <g id="Layer_1" fill="#000000">
            <g id="Group">
                <path d="M43.6647173,80.5334316 L61.1306043,80.5334316 C62.7373294,80.5334316 64.0414717,79.4059453 64.0414717,78.0168633 C64.0414717,76.6277813 62.7373294,75.5002949 61.1306043,75.5002949 L46.5755848,75.5002949 L46.5755848,70.4668633 L49.4864522,70.4668633 C51.0931774,70.4668633 52.3973197,69.339377 52.3973197,67.9502949 C52.3973197,66.5612129 51.0931774,65.4337266 49.4864522,65.4337266 L46.5755848,65.4337266 L46.5755848,60.4 L49.4864522,60.4 C51.0931774,60.4 52.3973197,59.2725137 52.3973197,57.8834316 C52.3973197,56.4943496 51.0931774,55.3668633 49.4864522,55.3668633 L46.5755848,55.3668633 L46.5755848,50.3334316 L61.1306043,50.3334316 C62.7373294,50.3334316 64.0414717,49.2059453 64.0414717,47.8168633 C64.0414717,46.4277813 62.7373294,45.3002949 61.1306043,45.3002949 L46.5755848,45.3002949 L46.5755848,40.2668633 L49.4864522,40.2668633 C51.0931774,40.2668633 52.3973197,39.139377 52.3973197,37.7502949 C52.3973197,36.3612129 51.0931774,35.2337266 49.4864522,35.2337266 L46.5755848,35.2337266 L46.5755848,30.2 L49.4864522,30.2 C51.0931774,30.2 52.3973197,29.0725137 52.3973197,27.6834316 C52.3973197,26.2943496 51.0931774,25.1668633 49.4864522,25.1668633 L46.5755848,25.1668633 L46.5755848,20.1334316 L61.1306043,20.1334316 C62.7373294,20.1334316 64.0414717,19.0059453 64.0414717,17.6168633 C64.0414717,16.2277813 62.7373294,15.1 61.1306043,15.1 L46.5755848,15.1 L46.5755848,5.03343164 L87.3294347,5.03343164 L87.3294347,78.0168633 C87.3294347,79.4059453 88.633577,80.5334316 90.2403021,80.5334316 C91.8470273,80.5334316 93.1511696,79.4059453 93.1511696,78.0168633 L93.1511696,2.51686328 C93.1511696,1.12778125 91.8470273,0.000294921875 90.2403021,0.000294921875 L43.6647173,0.000294921875 C42.0579922,0.000294921875 40.7538499,1.12778125 40.7538499,2.51686328 L40.7538499,78.0168633 C40.7538499,79.4059453 42.0579922,80.5334316 43.6647173,80.5334316 L43.6647173,80.5334316 Z" id="Shape"></path>
                <path d="M2.91086745,80.5334316 C4.51759259,80.5334316 5.82173489,79.4059453 5.82173489,78.0168633 L5.82173489,12.5834316 C5.82173489,8.91401367 10.3103314,5.03343164 14.5546784,5.03343164 L32.0205653,5.03343164 C33.6272904,5.03343164 34.9314327,3.90594531 34.9314327,2.51686328 C34.9314327,1.12778125 33.6276316,0 32.0209064,0 L14.5550195,0 C7.07368421,0 0,6.1155 0,12.5834316 L0,78.0168633 C0,79.4059453 1.3041423,80.5334316 2.91086745,80.5334316 L2.91086745,80.5334316 Z" id="Shape"></path>
                <path d="M130.994152,30.2 C129.387427,30.2 128.083285,31.3274863 128.083285,32.7165684 L128.083285,78.0165684 C128.083285,79.4056504 129.387427,80.5331367 130.994152,80.5331367 C132.600877,80.5331367 133.905019,79.4056504 133.905019,78.0165684 L133.905019,32.7165684 C133.905019,31.3274863 132.600877,30.2 130.994152,30.2 L130.994152,30.2 Z" id="Shape"></path>
                <path d="M113.528265,32.7165684 L113.528265,78.0165684 C113.528265,79.4056504 114.832407,80.5331367 116.439133,80.5331367 C118.045858,80.5331367 119.35,79.4056504 119.35,78.0165684 L119.35,32.7165684 C119.35,31.3274863 118.045858,30.2 116.439133,30.2 C114.832407,30.2 113.528265,31.3274863 113.528265,32.7165684 L113.528265,32.7165684 Z" id="Shape"></path>
                <path d="M119.350341,145.966568 L116.439474,145.966568 L116.439474,143.45 C116.439474,142.060918 115.135331,140.933432 113.528606,140.933432 C111.921881,140.933432 110.617739,142.060918 110.617739,143.45 L110.617739,145.966568 L104.795322,145.966568 L104.795322,143.45 C104.795322,142.060918 103.491179,140.933432 101.884454,140.933432 C100.277729,140.933432 98.9735867,142.060918 98.9735867,143.45 L98.9735867,145.966568 L93.1515107,145.966568 L93.1515107,143.45 C93.1515107,142.060918 91.8473684,140.933432 90.2406433,140.933432 C88.6339181,140.933432 87.3297758,142.060918 87.3297758,143.45 L87.3297758,145.966568 L81.5076998,145.966568 L81.5076998,143.45 C81.5076998,142.060918 80.2035575,140.933432 78.5968324,140.933432 C76.9901072,140.933432 75.6859649,142.060918 75.6859649,143.45 L75.6859649,145.966568 L69.8635478,145.966568 L69.8635478,143.45 C69.8635478,142.060918 68.5594055,140.933432 66.9526803,140.933432 C65.3459552,140.933432 64.0418129,142.060918 64.0418129,143.45 L64.0418129,145.966568 L58.2197368,145.966568 L58.2197368,143.45 C58.2197368,142.060918 56.9155945,140.933432 55.3088694,140.933432 C53.7021442,140.933432 52.3980019,142.060918 52.3980019,143.45 L52.3980019,145.966568 L46.5759259,145.966568 L46.5759259,143.45 C46.5759259,142.060918 45.2717836,140.933432 43.6650585,140.933432 C42.0583333,140.933432 40.754191,142.060918 40.754191,143.45 L40.754191,145.966568 L34.9317739,145.966568 L34.9317739,143.45 C34.9317739,142.060918 33.6276316,140.933432 32.0209064,140.933432 C30.4141813,140.933432 29.110039,142.060918 29.110039,143.45 L29.110039,145.966568 L23.287963,145.966568 L23.287963,143.45 C23.287963,142.060918 21.9838207,140.933432 20.3770955,140.933432 C18.7703704,140.933432 17.4658869,142.060918 17.4658869,143.45 L17.4658869,145.966568 L14.5550195,145.966568 C12.9482943,145.966568 11.644152,147.094055 11.644152,148.483137 C11.644152,149.872219 12.9479532,151 14.5550195,151 L119.350341,151 C120.957066,151 122.261209,149.872514 122.261209,148.483432 C122.261209,147.09435 120.957066,145.966568 119.350341,145.966568 L119.350341,145.966568 Z" id="Shape"></path>
                <path d="M101.884454,80.5334316 C103.491179,80.5334316 104.795322,79.4059453 104.795322,78.0168633 L104.795322,23.3722637 L116.439133,7.26569531 L125.742788,20.1334316 L113.528265,20.1334316 C111.92154,20.1334316 110.617398,21.260918 110.617398,22.65 C110.617398,24.039082 111.92154,25.1665684 113.528265,25.1665684 L130.994152,25.1665684 C132.053704,25.1665684 133.025926,24.6708047 133.541374,23.8703867 C134.053752,23.0699687 134.024756,22.091123 133.462914,21.3160684 L118.907895,1.18293164 C117.842544,-0.289318359 115.036404,-0.289318359 113.970712,1.18293164 L99.415692,21.3160684 C99.1274366,21.7162773 98.9732456,22.1766504 98.9732456,22.65 L98.9732456,78.0165684 C98.9732456,79.4059453 100.277388,80.5334316 101.884454,80.5334316 L101.884454,80.5334316 Z" id="Shape"></path>
                <path d="M160.10385,0 L130.994152,0 C129.387427,0 128.083285,1.12748633 128.083285,2.51656836 C128.083285,3.90565039 129.387427,5.03313672 130.994152,5.03313672 L160.10385,5.03313672 C164.348197,5.03313672 168.836793,8.91371875 168.836793,12.5831367 L168.836793,103.183137 C168.836793,106.852555 164.348197,110.733137 160.10385,110.733137 L14.5550195,110.733137 C10.3106725,110.733137 5.82207602,106.852555 5.82207602,103.183137 L5.82207602,90.6 L160.104191,90.6 C161.710916,90.6 163.015058,89.4725137 163.015058,88.0834316 C163.015058,86.6943496 161.710916,85.5668633 160.104191,85.5668633 L2.91086745,85.5668633 C1.3041423,85.5668633 0,86.6943496 0,88.0834316 L0,103.183432 C0,109.651363 7.07368421,115.766863 14.5550195,115.766863 L160.104191,115.766863 C167.585526,115.766863 174.659211,109.651363 174.659211,103.183432 L174.659211,12.5834316 C174.658869,6.1155 167.585185,0 160.10385,0 L160.10385,0 Z" id="Shape"></path>
                <path d="M81.5073587,100.666568 C81.5073587,103.442373 84.1183723,105.7 87.3294347,105.7 C90.5401559,105.7 93.1515107,103.442668 93.1515107,100.666568 C93.1515107,97.8907637 90.5404971,95.6331367 87.3294347,95.6331367 C84.1187135,95.6334316 81.5073587,97.8907637 81.5073587,100.666568 L81.5073587,100.666568 Z" id="Shape"></path>
                <path d="M101.884454,135.9 C103.491179,135.9 104.795322,134.772514 104.795322,133.383432 L104.795322,123.316863 C104.795322,121.927781 103.491179,120.800295 101.884454,120.800295 C100.277729,120.800295 98.9735867,121.927781 98.9735867,123.316863 L98.9735867,133.383432 C98.9732456,134.772514 100.277388,135.9 101.884454,135.9 L101.884454,135.9 Z" id="Shape"></path>
                <path d="M75.6856238,133.383432 L75.6856238,123.316863 C75.6856238,121.927781 74.3814815,120.800295 72.7747563,120.800295 C71.1680312,120.800295 69.8638889,121.927781 69.8638889,123.316863 L69.8638889,133.383432 C69.8638889,134.772514 71.1680312,135.9 72.7747563,135.9 C74.3814815,135.9 75.6856238,134.772514 75.6856238,133.383432 L75.6856238,133.383432 Z" id="Shape"></path>
                <path d="M151.370906,135.9 L145.54883,135.9 C139.127047,135.9 133.905019,140.414959 133.905019,145.966568 L133.905019,148.483137 C133.905019,149.872219 135.209162,150.999705 136.815887,150.999705 L160.10385,150.999705 C161.710575,150.999705 163.014717,149.872219 163.014717,148.483137 L163.014717,145.966568 C163.015058,140.414959 157.79269,135.9 151.370906,135.9 L151.370906,135.9 Z M139.727096,145.966568 C139.727096,143.190764 142.338109,140.933137 145.549172,140.933137 L151.371248,140.933137 C154.581969,140.933137 157.193324,143.190469 157.193324,145.966568 L139.727096,145.966568 L139.727096,145.966568 Z" id="Shape"></path>
            </g>
        </g>
    </g>
</svg>
