
<svg width="54px" height="54px" viewBox="197 679 54 54" version="1.1" xmlns="http://www.w3.org/2000/svg" xmlns:xlink="http://www.w3.org/1999/xlink">
    <!-- Generator: Sketch 3.8.1 (29687) - http://www.bohemiancoding.com/sketch -->
    <desc>Created with Sketch.</desc>
    <defs></defs>
    <g id="phone2small" stroke="none" stroke-width="1" fill="none" fill-rule="evenodd" transform="translate(197.000000, 679.000000)">
        <g id="Capa_1" fill="#000000">
            <g id="Group">
                <path d="M53.364,40.909 C51.356,37.113 44.383,32.997 44.077,32.817 C42.799,32.089 41.476,31.862 40.356,32.171 C39.512,32.405 38.824,32.939 38.36,33.717 C37.34,34.937 36.074,36.363 35.768,36.584 C33.732,37.963 32.054,38.008 30.324,36.695 C30.27,36.653 30.209,36.608 30.16,36.568 C29.933,36.385 29.704,36.185 29.474,35.955 L17.987,24.469 C15.943,22.424 15.755,20.541 17.355,18.178 C17.579,17.868 19.005,16.603 20.226,15.582 C21.004,15.119 21.538,14.432 21.771,13.588 C22.083,12.465 21.853,11.143 21.119,9.855 C20.946,9.559 16.829,2.586 13.034,0.579 C11.108,-0.44 8.778,-0.091 7.237,1.45 L4.7,3.987 C0.687,8 -0.767,12.549 0.38,17.506 C1.336,21.638 4.122,26.035 8.662,30.575 L23.367,45.28 C27.907,49.82 32.304,52.606 36.436,53.562 C37.531,53.815 38.605,53.942 39.659,53.942 C43.376,53.941 46.828,52.369 49.955,49.241 L52.492,46.705 C54.033,45.163 54.383,42.834 53.364,40.909 L53.364,40.909 Z M51.078,45.291 L48.541,47.827 C45,51.37 41.188,52.607 36.886,51.614 C33.124,50.744 29.052,48.137 24.781,43.866 L10.076,29.161 C5.805,24.89 3.198,20.817 2.328,17.056 C1.333,12.756 2.572,8.944 6.114,5.402 L8.651,2.865 C9.218,2.299 9.964,2.003 10.721,2.003 C11.188,2.003 11.66,2.115 12.097,2.347 C15.391,4.09 19.353,10.8 19.387,10.857 C19.836,11.645 20.007,12.466 19.844,13.054 C19.744,13.414 19.521,13.687 19.161,13.889 L19.01,13.993 C18.157,14.705 16.128,16.426 15.701,17.055 C15.042,18.028 14.616,18.984 14.42,19.92 C13.582,18.388 12.879,16.56 12.665,14.506 C12.608,13.958 12.121,13.572 11.567,13.614 C11.018,13.672 10.618,14.163 10.675,14.713 C11.397,21.666 16.804,26.192 17.034,26.381 C17.057,26.4 17.085,26.407 17.11,26.424 L27.885,37.199 C27.915,37.239 27.931,37.286 27.968,37.322 C28.157,37.509 32.672,41.889 39.567,42.605 C39.602,42.608 39.637,42.61 39.671,42.61 C40.177,42.61 40.611,42.227 40.665,41.714 C40.722,41.164 40.323,40.673 39.773,40.615 C37.91,40.422 36.232,39.917 34.79,39.308 C35.48,39.074 36.179,38.723 36.888,38.243 C37.516,37.818 39.238,35.788 39.949,34.935 L40.053,34.784 C40.255,34.425 40.528,34.201 40.888,34.101 C41.476,33.937 42.297,34.109 43.074,34.551 C43.142,34.591 49.852,38.553 51.595,41.847 C52.202,42.989 51.994,44.374 51.078,45.291 L51.078,45.291 Z" id="Shape"></path>
                <path d="M29.555,24.928 C29.677,24.979 29.807,25.005 29.937,25.005 L41.937,25.005 C42.489,25.005 42.937,24.558 42.937,24.005 C42.937,23.452 42.489,23.005 41.937,23.005 L32.351,23.005 L47.644,7.712 C48.035,7.321 48.035,6.689 47.644,6.298 C47.253,5.907 46.621,5.907 46.23,6.298 L30.937,21.591 L30.937,12.005 C30.937,11.452 30.489,11.005 29.937,11.005 C29.385,11.005 28.937,11.452 28.937,12.005 L28.937,24.005 C28.937,24.135 28.964,24.265 29.014,24.387 C29.116,24.632 29.311,24.827 29.555,24.928 L29.555,24.928 Z" id="Shape"></path>
            </g>
        </g>
    </g>
</svg>
