
<svg width="302px" height="300px" viewBox="128 216 302 300" version="1.1" xmlns="http://www.w3.org/2000/svg" xmlns:xlink="http://www.w3.org/1999/xlink">
    <!-- Generator: Sketch 3.8.1 (29687) - http://www.bohemiancoding.com/sketch -->
    <desc>Created with Sketch.</desc>
    <defs></defs>
    <g id="school" stroke="none" stroke-width="1" fill="none" fill-rule="evenodd" transform="translate(129.000000, 216.000000)">
        <g id="Capa_1" fill="#000000">
            <g id="Group">
                <path d="M295.596869,290.44586 L285.90998,290.44586 L285.90998,157.324841 L295.596869,157.324841 C297.203718,157.324841 298.68317,156.375159 299.456947,154.846497 C300.230137,153.317834 300.174364,151.453503 299.311937,149.982803 L266.435225,93.9318471 C265.62681,92.5535032 264.226027,91.7191083 262.720157,91.7191083 L175.306849,91.7191083 L154.403131,69.0407643 L154.403131,50.3184713 L196.966732,50.3184713 C198.590607,50.3184713 200.082975,49.3490446 200.849119,47.7955414 C201.615264,46.2426752 201.531311,44.3573248 200.630137,42.8917197 L192.865362,30.2547771 L200.630724,17.6178344 C201.531898,16.1522293 201.615264,14.266879 200.849706,12.7140127 C200.082975,11.1605096 198.590607,10.1910828 196.966732,10.1910828 L154.403131,10.1910828 L154.403131,4.77707006 C154.403131,2.1388535 152.431703,0 150,0 C147.568297,0 145.596869,2.1388535 145.596869,4.77707006 L145.596869,69.0407643 L124.693151,91.7197452 L37.2798434,91.7197452 C35.7745597,91.7197452 34.3731898,92.5541401 33.564775,93.9324841 L0.688062622,149.983439 C-0.174363992,151.45414 -0.230136986,153.318471 0.543052838,154.847134 C1.31682975,156.375159 2.7962818,157.324841 4.40313112,157.324841 L14.0900196,157.324841 L14.0900196,290.44586 L4.40313112,290.44586 C1.97142857,290.44586 0,292.584713 0,295.22293 C0,297.861146 1.97142857,300 4.40313112,300 L295.596869,300 C298.028571,300 300,297.861146 300,295.22293 C300,292.584713 298.028571,290.44586 295.596869,290.44586 L295.596869,290.44586 Z M260.303131,101.273885 L287.576125,147.770701 L226.970254,147.770701 L184.113112,101.273885 L260.303131,101.273885 L260.303131,101.273885 Z M188.739335,19.7452229 L183.909393,27.6050955 C182.923092,29.2095541 182.923092,31.3 183.909393,32.9044586 L188.739335,40.7643312 L154.403131,40.7643312 L154.403131,19.7452229 L188.739335,19.7452229 L188.739335,19.7452229 Z M39.6968689,101.273885 L115.886301,101.273885 L73.0291585,147.770701 L12.4244618,147.770701 L39.6968689,101.273885 L39.6968689,101.273885 Z M22.8962818,157.324841 L74.8520548,157.324841 C74.9976517,157.324841 75.1432485,157.316561 75.2888454,157.300637 C75.3510763,157.294268 75.4121331,157.281529 75.4737769,157.271975 C75.5542074,157.259236 75.634638,157.249045 75.7150685,157.231847 C75.7866928,157.216561 75.8559687,157.194904 75.9264188,157.175796 C75.9951076,157.157325 76.0643836,157.140127 76.1324853,157.118471 C76.2017613,157.095541 76.2692759,157.066879 76.3373777,157.040764 C76.4048924,157.01465 76.472407,156.990446 76.5393346,156.96051 C76.6033268,156.931847 76.6643836,156.898089 76.7266145,156.866242 C76.7941292,156.83121 76.862818,156.798726 76.9291585,156.759873 C76.9896282,156.724841 77.0465753,156.684713 77.1052838,156.647134 C77.169863,156.605732 77.2356164,156.565605 77.2984344,156.519745 C77.3641879,156.471975 77.4258317,156.419108 77.4886497,156.367516 C77.5403131,156.325478 77.5937378,156.286624 77.6436399,156.241401 C77.7563601,156.141401 77.8643836,156.035669 77.9671233,155.923567 L150,77.7745223 L222.032877,155.924204 C222.135616,156.035669 222.244227,156.141401 222.35636,156.242038 C222.406262,156.286624 222.4591,156.325478 222.510763,156.367516 C222.574168,156.419108 222.636399,156.472611 222.702153,156.520382 C222.764384,156.565605 222.82955,156.605096 222.893542,156.646497 C222.952838,156.68535 223.010372,156.725478 223.071429,156.76051 C223.137182,156.798726 223.204697,156.83121 223.272211,156.865605 C223.335029,156.898089 223.39726,156.931847 223.46184,156.961146 C223.527593,156.990446 223.594521,157.014013 223.660861,157.040127 C223.72955,157.066879 223.797652,157.095541 223.868102,157.119108 C223.935029,157.141401 224.003131,157.157325 224.070646,157.175796 C224.14227,157.195541 224.21272,157.217197 224.285519,157.232484 C224.363014,157.249045 224.441096,157.259236 224.519178,157.271338 C224.58317,157.281529 224.646575,157.294268 224.711742,157.301274 C224.856164,157.316561 225.001174,157.324841 225.146184,157.324841 L277.103718,157.324841 L277.103718,290.44586 L182.58317,290.44586 L182.58317,223.88535 C182.58317,215.631847 176.394129,208.917197 168.786693,208.917197 L131.213307,208.917197 C123.605871,208.917197 117.41683,215.631847 117.41683,223.88535 L117.41683,290.44586 L22.8962818,290.44586 L22.8962818,157.324841 L22.8962818,157.324841 Z M173.776908,229.299363 L126.223092,229.299363 L126.223092,223.88535 C126.223092,220.9 128.461644,218.471338 131.213307,218.471338 L168.786693,218.471338 C171.538356,218.471338 173.776908,220.9 173.776908,223.88535 L173.776908,229.299363 L173.776908,229.299363 Z M126.223092,238.853503 L145.596869,238.853503 L145.596869,290.44586 L126.223092,290.44586 L126.223092,238.853503 L126.223092,238.853503 Z M154.403131,238.853503 L173.776908,238.853503 L173.776908,290.44586 L154.403131,290.44586 L154.403131,238.853503 L154.403131,238.853503 Z" id="Shape"></path>
                <path d="M150,192.993631 C167.966536,192.993631 182.58317,177.135669 182.58317,157.643312 C182.58317,138.150955 167.966536,122.292994 150,122.292994 C132.033464,122.292994 117.41683,138.150955 117.41683,157.643312 C117.41683,177.135669 132.033464,192.993631 150,192.993631 L150,192.993631 Z M150,131.847134 C163.110763,131.847134 173.776908,143.419108 173.776908,157.643312 C173.776908,171.867516 163.110763,183.43949 150,183.43949 C136.889237,183.43949 126.223092,171.867516 126.223092,157.643312 C126.223092,143.419108 136.889237,131.847134 150,131.847134 L150,131.847134 Z" id="Shape"></path>
                <path d="M150,162.420382 C152.431703,162.420382 154.403131,160.281529 154.403131,157.643312 L154.403131,142.356688 C154.403131,139.718471 152.431703,137.579618 150,137.579618 C147.568297,137.579618 145.596869,139.718471 145.596869,142.356688 L145.596869,152.866242 L135.90998,152.866242 C133.478278,152.866242 131.506849,155.005096 131.506849,157.643312 C131.506849,160.281529 133.478278,162.420382 135.90998,162.420382 L150,162.420382 L150,162.420382 Z" id="Shape"></path>
                <path d="M103.033268,234.394904 L79.5499022,234.394904 C77.1181996,234.394904 75.146771,236.533758 75.146771,239.171975 L75.146771,269.745223 C75.146771,272.383439 77.1181996,274.522293 79.5499022,274.522293 L103.033268,274.522293 C105.464971,274.522293 107.436399,272.383439 107.436399,269.745223 L107.436399,239.171975 C107.436399,236.533758 105.464971,234.394904 103.033268,234.394904 L103.033268,234.394904 Z M98.630137,243.949045 L98.630137,249.681529 L83.9530333,249.681529 L83.9530333,243.949045 L98.630137,243.949045 L98.630137,243.949045 Z M83.9530333,264.968153 L83.9530333,259.235669 L98.630137,259.235669 L98.630137,264.968153 L83.9530333,264.968153 L83.9530333,264.968153 Z" id="Shape"></path>
                <path d="M60.7632094,234.394904 L37.2798434,234.394904 C34.8481409,234.394904 32.8767123,236.533758 32.8767123,239.171975 L32.8767123,269.745223 C32.8767123,272.383439 34.8481409,274.522293 37.2798434,274.522293 L60.7632094,274.522293 C63.1949119,274.522293 65.1663405,272.383439 65.1663405,269.745223 L65.1663405,239.171975 C65.1663405,236.533758 63.1949119,234.394904 60.7632094,234.394904 L60.7632094,234.394904 Z M56.3600783,243.949045 L56.3600783,249.681529 L41.6829746,249.681529 L41.6829746,243.949045 L56.3600783,243.949045 L56.3600783,243.949045 Z M41.6829746,264.968153 L41.6829746,259.235669 L56.3600783,259.235669 L56.3600783,264.968153 L41.6829746,264.968153 L41.6829746,264.968153 Z" id="Shape"></path>
                <path d="M101.565558,173.248408 L81.0176125,173.248408 C77.7804305,173.248408 75.146771,176.105732 75.146771,179.617834 L75.146771,213.694268 C75.146771,216.332484 77.1181996,218.471338 79.5499022,218.471338 L103.033268,218.471338 C105.464971,218.471338 107.436399,216.332484 107.436399,213.694268 L107.436399,179.617834 C107.436399,176.105732 104.80274,173.248408 101.565558,173.248408 L101.565558,173.248408 Z M98.630137,182.802548 L98.630137,193.630573 L83.9530333,193.630573 L83.9530333,182.802548 L98.630137,182.802548 L98.630137,182.802548 Z M83.9530333,208.917197 L83.9530333,203.184713 L98.630137,203.184713 L98.630137,208.917197 L83.9530333,208.917197 L83.9530333,208.917197 Z" id="Shape"></path>
                <path d="M59.295499,173.248408 L38.7475538,173.248408 C35.5103718,173.248408 32.8767123,176.105732 32.8767123,179.617834 L32.8767123,213.694268 C32.8767123,216.332484 34.8481409,218.471338 37.2798434,218.471338 L60.7632094,218.471338 C63.1949119,218.471338 65.1663405,216.332484 65.1663405,213.694268 L65.1663405,179.617834 C65.1663405,176.105732 62.532681,173.248408 59.295499,173.248408 L59.295499,173.248408 Z M56.3600783,182.802548 L56.3600783,193.630573 L41.6829746,193.630573 L41.6829746,182.802548 L56.3600783,182.802548 L56.3600783,182.802548 Z M41.6829746,208.917197 L41.6829746,203.184713 L56.3600783,203.184713 L56.3600783,208.917197 L41.6829746,208.917197 L41.6829746,208.917197 Z" id="Shape"></path>
                <path d="M239.236791,274.522293 L262.720157,274.522293 C265.151859,274.522293 267.123288,272.383439 267.123288,269.745223 L267.123288,239.171975 C267.123288,236.533758 265.151859,234.394904 262.720157,234.394904 L239.236791,234.394904 C236.805088,234.394904 234.833659,236.533758 234.833659,239.171975 L234.833659,269.745223 C234.833659,272.383439 236.805088,274.522293 239.236791,274.522293 L239.236791,274.522293 Z M243.639922,264.968153 L243.639922,259.235669 L258.317025,259.235669 L258.317025,264.968153 L243.639922,264.968153 L243.639922,264.968153 Z M258.317025,243.949045 L258.317025,249.681529 L243.639922,249.681529 L243.639922,243.949045 L258.317025,243.949045 L258.317025,243.949045 Z" id="Shape"></path>
                <path d="M196.966732,274.522293 L220.450098,274.522293 C222.8818,274.522293 224.853229,272.383439 224.853229,269.745223 L224.853229,239.171975 C224.853229,236.533758 222.8818,234.394904 220.450098,234.394904 L196.966732,234.394904 C194.535029,234.394904 192.563601,236.533758 192.563601,239.171975 L192.563601,269.745223 C192.563601,272.383439 194.535029,274.522293 196.966732,274.522293 L196.966732,274.522293 Z M201.369863,264.968153 L201.369863,259.235669 L216.046967,259.235669 L216.046967,264.968153 L201.369863,264.968153 L201.369863,264.968153 Z M216.046967,243.949045 L216.046967,249.681529 L201.369863,249.681529 L201.369863,243.949045 L216.046967,243.949045 L216.046967,243.949045 Z" id="Shape"></path>
                <path d="M239.236791,218.471338 L262.720157,218.471338 C265.151859,218.471338 267.123288,216.332484 267.123288,213.694268 L267.123288,179.617834 C267.123288,176.105732 264.489628,173.248408 261.252446,173.248408 L240.704501,173.248408 C237.467319,173.248408 234.833659,176.105732 234.833659,179.617834 L234.833659,213.694268 C234.833659,216.332484 236.805088,218.471338 239.236791,218.471338 L239.236791,218.471338 Z M243.639922,208.917197 L243.639922,203.184713 L258.317025,203.184713 L258.317025,208.917197 L243.639922,208.917197 L243.639922,208.917197 Z M258.317025,182.802548 L258.317025,193.630573 L243.639922,193.630573 L243.639922,182.802548 L258.317025,182.802548 L258.317025,182.802548 Z" id="Shape"></path>
                <path d="M196.966732,218.471338 L220.450098,218.471338 C222.8818,218.471338 224.853229,216.332484 224.853229,213.694268 L224.853229,179.617834 C224.853229,176.105732 222.219569,173.248408 218.982387,173.248408 L198.434442,173.248408 C195.19726,173.248408 192.563601,176.105732 192.563601,179.617834 L192.563601,213.694268 C192.563601,216.332484 194.535029,218.471338 196.966732,218.471338 L196.966732,218.471338 Z M201.369863,208.917197 L201.369863,203.184713 L216.046967,203.184713 L216.046967,208.917197 L201.369863,208.917197 L201.369863,208.917197 Z M216.046967,182.802548 L216.046967,193.630573 L201.369863,193.630573 L201.369863,182.802548 L216.046967,182.802548 L216.046967,182.802548 Z" id="Shape"></path>
            </g>
        </g>
    </g>
</svg>
