
<svg width="350px" height="246px" viewBox="654 762 350 246" version="1.1" xmlns="http://www.w3.org/2000/svg" xmlns:xlink="http://www.w3.org/1999/xlink">
    <!-- Generator: Sketch 3.8.1 (29687) - http://www.bohemiancoding.com/sketch -->
    <desc>Created with Sketch.</desc>
    <defs></defs>
    <g id="screen" stroke="none" stroke-width="1" fill="none" fill-rule="evenodd" transform="translate(654.000000, 762.000000)">
        <g id="Capa_1" fill="#000000">
            <g id="Layer_68_6_">
                <g id="Group">
                    <path d="M349.118258,220.073819 L349.118258,0.214882332 L0,0.214882332 L0,220.073819 L142.495436,220.073819 L142.495436,234.224706 L68.0058208,234.224706 L68.0058208,245.901915 L276.575262,245.901915 L276.575262,234.224706 L203.699194,234.224706 L203.699194,220.073819 L349.118258,220.073819 L349.118258,220.073819 Z M25.5354899,187.705031 L25.5354899,25.3154261 L323.575366,25.3154261 L323.575366,187.683205 L25.5354899,187.683205 L25.5354899,187.705031 L25.5354899,187.705031 Z" id="Shape"></path>
                    <path d="M143.613076,133.975316 L74.3119765,133.975316 L53.7799623,135.001165 L53.7799623,148.882857 L189.088453,148.882857 L189.088453,133.975316 L147.676549,133.975316 L143.613076,133.975316 L143.613076,133.975316 Z M165.81785,143.142472 L123.058857,143.142472 L123.058857,140.355947 L165.81785,140.355947 L165.81785,143.142472 L165.81785,143.142472 Z" id="Shape"></path>
                    <polygon id="Shape" points="84.9998744 47.716752 206.304554 47.716752 206.304554 51.1216954 216.999853 51.1216954 216.999853 37.1963502 74.3119765 37.1963502 74.3119765 129.68276 189.081051 129.68276 189.081051 119.184184 84.9998744 119.184184"></polygon>
                    <path d="M205.816049,67.3097272 L258.641206,67.3097272 L258.641206,86.2842832 L269.380915,86.2842832 L269.380915,56.7383968 L195.068938,56.7383968 L195.068938,166.285901 L237.354229,166.285901 L237.354229,157.278807 C237.354229,159.228646 235.762887,160.800158 233.779261,160.800158 C231.795634,160.800158 230.204292,159.221371 230.204292,157.278807 C230.204292,155.336243 231.810438,153.772006 233.779261,153.772006 C235.748084,153.772006 237.354229,155.336243 237.354229,157.278807 L237.354229,148.126203 L205.808647,148.126203 L205.808647,67.3097272 L205.816049,67.3097272 L205.816049,67.3097272 Z" id="Shape"></path>
                    <path d="M243.386526,177.11915 L295.353099,177.11915 L295.353099,91.1879837 L243.386526,91.1879837 L243.386526,177.11915 L243.386526,177.11915 Z M270.024853,173.423186 C268.359495,173.423186 267.027209,172.08449 267.027209,170.469324 C267.027209,168.854159 268.366897,167.530014 270.024853,167.530014 C271.68281,167.530014 273.015096,168.854159 273.015096,170.469324 C273.015096,172.08449 271.68281,173.423186 270.024853,173.423186 L270.024853,173.423186 Z M270.52076,94.7457129 C271.21651,94.7457129 271.771629,95.2986524 271.771629,95.9825513 C271.771629,96.6591747 271.21651,97.2121142 270.52076,97.2121142 C269.82501,97.2121142 269.26249,96.6591747 269.26249,95.9825513 C269.26249,95.305928 269.82501,94.7457129 270.52076,94.7457129 L270.52076,94.7457129 Z M263.052554,98.8709327 L278.01117,98.8709327 L278.01117,100.056842 L263.052554,100.056842 L263.052554,98.8709327 L263.052554,98.8709327 Z M251.720718,104.28392 L287.018907,104.269369 L287.018907,163.302937 C273.525806,163.361141 258.42656,163.419346 251.720718,163.361141 L251.720718,104.28392 L251.720718,104.28392 Z" id="Shape"></path>
                </g>
            </g>
        </g>
    </g>
</svg>
