<?xml version="1.0" encoding="iso-8859-1"?>
<!-- Generator: Adobe Illustrator 19.0.0, SVG Export Plug-In . SVG Version: 6.00 Build 0)  -->
<svg version="1.1" id="Layer_1" xmlns="http://www.w3.org/2000/svg" xmlns:xlink="http://www.w3.org/1999/xlink" x="0px" y="0px"
	 viewBox="0 -90 490 700" style="enable-background:new 0 0 490 490;" xml:space="preserve">
<g>
	<g>
		<g id="XMLID_119_">
			<g>
				<polygon style="fill:#AFB6BB;" points="420,90 340,90 340,10 				"/>
				<polygon style="fill:#FFFFFF;" points="420,90 420,480 70,480 70,10 340,10 340,90 				"/>
			</g>
			<path style="fill:#231F20;" d="M429.976,90c-0.001-2.601-0.993-5.159-2.905-7.071l-80-80c-1.912-1.913-4.469-2.904-7.071-2.905V0
				H70c-5.522,0-10,4.477-10,10v470c0,5.523,4.478,10,10,10h350c5.522,0,10-4.477,10-10V90H429.976z M350,34.142L395.857,80H350
				V34.142z M80,470V20h250v70c0,5.523,4.478,10,10,10h70v370H80z"/>
		</g>
	</g>
	<path style="fill:#231F20;" d="M316.585,192.474l-40-35c-3.77-3.299-9.4-3.299-13.17,0l-40,35l13.17,15.052L260,187.038V190
		c0,56.349-23.208,96.94-68.979,120.645c-35.059,18.156-70.926,19.349-71.284,19.358L120,340l0.25,9.997
		c1.624-0.041,40.229-1.225,79.311-21.254C236.257,309.937,280,270.6,280,190v-2.962l23.415,20.488L316.585,192.474z"/>
	<g id="XMLID_120_">
		<g>
			<path style="fill:#F4661E;" d="M270,65c16.6,0,30,13.4,30,30s-13.4,30-30,30s-30-13.4-30-30S253.4,65,270,65z"/>
		</g>
		<g>
			<g>
				<path style="fill:#231F20;" d="M270,135c-22.056,0-40-17.944-40-40s17.944-40,40-40s40,17.944,40,40S292.056,135,270,135z
					 M270,75c-11.028,0-20,8.972-20,20s8.972,20,20,20s20-8.972,20-20S281.028,75,270,75z"/>
			</g>
		</g>
	</g>
	<polygon style="fill:#231F20;" points="207.071,217.071 192.929,202.929 170,225.857 147.071,202.929 132.929,217.071 155.857,240
		132.929,262.929 147.071,277.071 170,254.143 192.929,277.071 207.071,262.929 184.143,240 	"/>
	<polygon style="fill:#231F20;" points="362.071,277.071 347.929,262.929 325,285.857 302.071,262.929 287.929,277.071 310.857,300
		287.929,322.929 302.071,337.071 325,314.143 347.929,337.071 362.071,322.929 339.143,300 	"/>
	<g>
		<rect x="105" y="40" style="fill:#231F20;" width="80" height="20"/>
	</g>
	<g>
		<rect x="105" y="80" style="fill:#231F20;" width="50" height="20"/>
	</g>
	<g>
		<rect x="115" y="380" style="fill:#231F20;" width="50" height="20"/>
	</g>
	<g>
		<rect x="115" y="420" style="fill:#231F20;" width="210" height="20"/>
	</g>
	<g>
		<rect x="185" y="380" style="fill:#231F20;" width="50" height="20"/>
	</g>
	<g>
		<rect x="255" y="380" style="fill:#231F20;" width="50" height="20"/>
	</g>
	<g>
		<rect x="325" y="380" style="fill:#231F20;" width="50" height="20"/>
	</g>
</g>
<g>
</g>
<g>
</g>
<g>
</g>
<g>
</g>
<g>
</g>
<g>
</g>
<g>
</g>
<g>
</g>
<g>
</g>
<g>
</g>
<g>
</g>
<g>
</g>
<g>
</g>
<g>
</g>
<g>
</g>
</svg>
