
<svg width="87px" height="70px" viewBox="181 904 87 70" version="1.1" xmlns="http://www.w3.org/2000/svg" xmlns:xlink="http://www.w3.org/1999/xlink">
    <!-- Generator: Sketch 3.8.1 (29687) - http://www.bohemiancoding.com/sketch -->
    <desc>Created with Sketch.</desc>
    <defs></defs>
    <g id="strategy" stroke="none" stroke-width="1" fill="none" fill-rule="evenodd" transform="translate(181.000000, 904.000000)">
        <g id="Layer_1" fill="#000000">
            <path d="M83.8608633,0 L3.13913672,0 C1.4083125,0 0,1.1169375 0,2.48966016 L0,66.5103398 C0,67.8830625 1.4083125,69 3.13913672,69 L83.8608633,69 C85.5916875,69 87,67.8830625 87,66.5103398 L87,2.48966016 C87,1.1169375 85.5916875,0 83.8608633,0 L83.8608633,0 Z M84.3092871,66.5103398 C84.3092871,66.7030547 84.1038516,66.8659863 83.8608633,66.8659863 L3.13913672,66.8659863 C2.89614844,66.8659863 2.69071289,66.7030547 2.69071289,66.5103398 L2.69071289,2.48966016 C2.69071289,2.29694531 2.89614844,2.13401367 3.13913672,2.13401367 L83.8608633,2.13401367 C84.1038516,2.13401367 84.3092871,2.29694531 84.3092871,2.48966016 L84.3092871,66.5103398 L84.3092871,66.5103398 Z" id="Shape"></path>
            <path d="M69.5102813,10.2281719 L59.5897324,18.0959238 L61.4925176,19.6048945 L68.1116543,14.3550996 C67.5220254,25.7140898 61.6762031,36.3201445 51.4932949,44.3962441 C40.7428477,52.9227305 26.4369551,57.6185039 11.2114453,57.6185039 L11.2114453,59.7525176 C27.1557246,59.7525176 42.1372266,54.8349199 53.39625,45.9053496 C64.1111836,37.4072988 70.2402656,26.2346895 70.8081445,14.2751836 L77.5280449,19.6050293 L79.4308301,18.0960586 L69.5102813,10.2281719 L69.5102813,10.2281719 Z" id="Shape"></path>
            <path d="M21.9742969,18.4948301 C17.276127,18.4948301 13.4537344,21.5263828 13.4537344,25.2525176 C13.4537344,28.9786523 17.276127,32.0102051 21.9742969,32.0102051 C26.6724668,32.0102051 30.4948594,28.9786523 30.4948594,25.2525176 C30.4948594,21.5263828 26.6724668,18.4948301 21.9742969,18.4948301 L21.9742969,18.4948301 Z M21.9742969,29.8763262 C18.7595449,29.8763262 16.1444473,27.8021484 16.1444473,25.2526523 C16.1444473,22.7030215 18.7597148,20.6289785 21.9742969,20.6289785 C25.1890488,20.6289785 27.8041465,22.7031563 27.8041465,25.2526523 C27.8041465,27.8021484 25.1888789,29.8763262 21.9742969,29.8763262 L21.9742969,29.8763262 Z" id="Shape"></path>
            <path d="M66.8195684,46.9484355 C62.1213984,46.9484355 58.2990059,49.9799883 58.2990059,53.706123 C58.2990059,57.4322578 62.1213984,60.4638105 66.8195684,60.4638105 C71.5177383,60.4638105 75.3401309,57.4322578 75.3401309,53.706123 C75.3401309,49.9799883 71.5177383,46.9484355 66.8195684,46.9484355 L66.8195684,46.9484355 Z M66.8195684,58.3299316 C63.6048164,58.3299316 60.9897188,56.2557539 60.9897188,53.7062578 C60.9897188,51.156627 63.6049863,49.082584 66.8195684,49.082584 C70.0341504,49.082584 72.649418,51.1567617 72.649418,53.7062578 C72.649418,56.2557539 70.0343203,58.3299316 66.8195684,58.3299316 L66.8195684,58.3299316 Z" id="Shape"></path>
            <polygon id="Shape" points="50.7298359 20.9770781 48.8268809 19.4681074 43.4362793 23.7435469 38.0455078 19.4681074 36.1427227 20.9770781 41.5334941 25.2525176 36.1427227 29.527957 38.0455078 31.0370625 43.4362793 26.761623 48.8268809 31.0370625 50.7298359 29.527957 45.3390645 25.2525176"></polygon>
            <polygon id="Shape" points="28.3071152 37.2874922 26.4041602 35.778252 21.0137285 40.0536914 15.6227871 35.778252 13.720002 37.2874922 19.1107734 41.5629316 13.720002 45.8382363 15.6227871 47.3473418 21.0137285 43.0719023 26.4041602 47.3473418 28.3071152 45.8382363 22.9163438 41.5629316"></polygon>
            <rect id="Rectangle-path" x="13.9019883" y="6.40204102" width="40.3608633" height="2.13401367"></rect>
            <rect id="Rectangle-path" x="13.9019883" y="11.3814961" width="5.38142578" height="2.13401367"></rect>
            <rect id="Rectangle-path" x="21.9742969" y="11.3814961" width="5.38142578" height="2.13401367"></rect>
            <rect id="Rectangle-path" x="42.6031523" y="11.3814961" width="11.6598691" height="2.13401367"></rect>
        </g>
    </g>
</svg>
